<mxfile host="app.diagrams.net" modified="2022-02-20T05:25:59.199Z" agent="5.0 (Windows NT 10.0; Win64; x64) AppleWebKit/537.36 (KHTML, like Gecko) Chrome/98.0.4758.102 Safari/537.36 Edg/98.0.1108.56" etag="IV__Mpjx47Ca2FDL4xdB" version="16.6.1" type="gitlab">
  <diagram id="R2lEEEUBdFMjLlhIrx00" name="Page-1">
    <mxGraphModel dx="2026" dy="1156" grid="1" gridSize="10" guides="1" tooltips="1" connect="1" arrows="1" fold="1" page="1" pageScale="1" pageWidth="827" pageHeight="1169" math="0" shadow="0" extFonts="Permanent Marker^https://fonts.googleapis.com/css?family=Permanent+Marker">
      <root>
        <mxCell id="0" />
        <mxCell id="1" parent="0" />
        <mxCell id="C-vyLk0tnHw3VtMMgP7b-23" value="Usuario" style="shape=table;startSize=30;container=1;collapsible=1;childLayout=tableLayout;fixedRows=1;rowLines=0;fontStyle=1;align=center;resizeLast=1;" parent="1" vertex="1">
          <mxGeometry x="449" y="78" width="280" height="180" as="geometry" />
        </mxCell>
        <mxCell id="C-vyLk0tnHw3VtMMgP7b-24" value="" style="shape=partialRectangle;collapsible=0;dropTarget=0;pointerEvents=0;fillColor=none;points=[[0,0.5],[1,0.5]];portConstraint=eastwest;top=0;left=0;right=0;bottom=1;" parent="C-vyLk0tnHw3VtMMgP7b-23" vertex="1">
          <mxGeometry y="30" width="280" height="30" as="geometry" />
        </mxCell>
        <mxCell id="C-vyLk0tnHw3VtMMgP7b-25" value="PK" style="shape=partialRectangle;overflow=hidden;connectable=0;fillColor=none;top=0;left=0;bottom=0;right=0;fontStyle=1;" parent="C-vyLk0tnHw3VtMMgP7b-24" vertex="1">
          <mxGeometry width="60" height="30" as="geometry">
            <mxRectangle width="60" height="30" as="alternateBounds" />
          </mxGeometry>
        </mxCell>
        <mxCell id="C-vyLk0tnHw3VtMMgP7b-26" value="usuario_id int NOT NULL " style="shape=partialRectangle;overflow=hidden;connectable=0;fillColor=none;top=0;left=0;bottom=0;right=0;align=left;spacingLeft=6;fontStyle=5;" parent="C-vyLk0tnHw3VtMMgP7b-24" vertex="1">
          <mxGeometry x="60" width="220" height="30" as="geometry">
            <mxRectangle width="220" height="30" as="alternateBounds" />
          </mxGeometry>
        </mxCell>
        <mxCell id="mT0ywA8BCh9S8RrEVg0q-61" value="" style="shape=tableRow;horizontal=0;startSize=0;swimlaneHead=0;swimlaneBody=0;fillColor=none;collapsible=0;dropTarget=0;points=[[0,0.5],[1,0.5]];portConstraint=eastwest;top=0;left=0;right=0;bottom=0;shadow=1;glass=1;labelBackgroundColor=#ffffff;fontSize=10;" vertex="1" parent="C-vyLk0tnHw3VtMMgP7b-23">
          <mxGeometry y="60" width="280" height="30" as="geometry" />
        </mxCell>
        <mxCell id="mT0ywA8BCh9S8RrEVg0q-62" value="" style="shape=partialRectangle;connectable=0;fillColor=none;top=0;left=0;bottom=0;right=0;editable=1;overflow=hidden;shadow=1;glass=1;labelBackgroundColor=#ffffff;fontSize=10;" vertex="1" parent="mT0ywA8BCh9S8RrEVg0q-61">
          <mxGeometry width="60" height="30" as="geometry">
            <mxRectangle width="60" height="30" as="alternateBounds" />
          </mxGeometry>
        </mxCell>
        <mxCell id="mT0ywA8BCh9S8RrEVg0q-63" value="usuario_cpf int NOT NULL" style="shape=partialRectangle;connectable=0;fillColor=none;top=0;left=0;bottom=0;right=0;align=left;spacingLeft=6;overflow=hidden;shadow=1;glass=1;labelBackgroundColor=#ffffff;fontSize=12;fontStyle=0" vertex="1" parent="mT0ywA8BCh9S8RrEVg0q-61">
          <mxGeometry x="60" width="220" height="30" as="geometry">
            <mxRectangle width="220" height="30" as="alternateBounds" />
          </mxGeometry>
        </mxCell>
        <mxCell id="EBOHfWfp8YWrXC1AQora-12" value="" style="shape=tableRow;horizontal=0;startSize=0;swimlaneHead=0;swimlaneBody=0;fillColor=none;collapsible=0;dropTarget=0;points=[[0,0.5],[1,0.5]];portConstraint=eastwest;top=0;left=0;right=0;bottom=0;" parent="C-vyLk0tnHw3VtMMgP7b-23" vertex="1">
          <mxGeometry y="90" width="280" height="30" as="geometry" />
        </mxCell>
        <mxCell id="EBOHfWfp8YWrXC1AQora-13" value="" style="shape=partialRectangle;connectable=0;fillColor=none;top=0;left=0;bottom=0;right=0;editable=1;overflow=hidden;" parent="EBOHfWfp8YWrXC1AQora-12" vertex="1">
          <mxGeometry width="60" height="30" as="geometry">
            <mxRectangle width="60" height="30" as="alternateBounds" />
          </mxGeometry>
        </mxCell>
        <mxCell id="EBOHfWfp8YWrXC1AQora-14" value="usuario_login char(20) NOT NULL" style="shape=partialRectangle;connectable=0;fillColor=none;top=0;left=0;bottom=0;right=0;align=left;spacingLeft=6;overflow=hidden;" parent="EBOHfWfp8YWrXC1AQora-12" vertex="1">
          <mxGeometry x="60" width="220" height="30" as="geometry">
            <mxRectangle width="220" height="30" as="alternateBounds" />
          </mxGeometry>
        </mxCell>
        <mxCell id="C-vyLk0tnHw3VtMMgP7b-27" value="" style="shape=partialRectangle;collapsible=0;dropTarget=0;pointerEvents=0;fillColor=none;points=[[0,0.5],[1,0.5]];portConstraint=eastwest;top=0;left=0;right=0;bottom=0;" parent="C-vyLk0tnHw3VtMMgP7b-23" vertex="1">
          <mxGeometry y="120" width="280" height="30" as="geometry" />
        </mxCell>
        <mxCell id="C-vyLk0tnHw3VtMMgP7b-28" value="" style="shape=partialRectangle;overflow=hidden;connectable=0;fillColor=none;top=0;left=0;bottom=0;right=0;" parent="C-vyLk0tnHw3VtMMgP7b-27" vertex="1">
          <mxGeometry width="60" height="30" as="geometry">
            <mxRectangle width="60" height="30" as="alternateBounds" />
          </mxGeometry>
        </mxCell>
        <mxCell id="C-vyLk0tnHw3VtMMgP7b-29" value="usuario_nome char(50) NOT NULL" style="shape=partialRectangle;overflow=hidden;connectable=0;fillColor=none;top=0;left=0;bottom=0;right=0;align=left;spacingLeft=6;" parent="C-vyLk0tnHw3VtMMgP7b-27" vertex="1">
          <mxGeometry x="60" width="220" height="30" as="geometry">
            <mxRectangle width="220" height="30" as="alternateBounds" />
          </mxGeometry>
        </mxCell>
        <mxCell id="EBOHfWfp8YWrXC1AQora-15" value="" style="shape=tableRow;horizontal=0;startSize=0;swimlaneHead=0;swimlaneBody=0;fillColor=none;collapsible=0;dropTarget=0;points=[[0,0.5],[1,0.5]];portConstraint=eastwest;top=0;left=0;right=0;bottom=0;" parent="C-vyLk0tnHw3VtMMgP7b-23" vertex="1">
          <mxGeometry y="150" width="280" height="30" as="geometry" />
        </mxCell>
        <mxCell id="EBOHfWfp8YWrXC1AQora-16" value="" style="shape=partialRectangle;connectable=0;fillColor=none;top=0;left=0;bottom=0;right=0;editable=1;overflow=hidden;" parent="EBOHfWfp8YWrXC1AQora-15" vertex="1">
          <mxGeometry width="60" height="30" as="geometry">
            <mxRectangle width="60" height="30" as="alternateBounds" />
          </mxGeometry>
        </mxCell>
        <mxCell id="EBOHfWfp8YWrXC1AQora-17" value="usuario_senha char(100) NOT NULL" style="shape=partialRectangle;connectable=0;fillColor=none;top=0;left=0;bottom=0;right=0;align=left;spacingLeft=6;overflow=hidden;" parent="EBOHfWfp8YWrXC1AQora-15" vertex="1">
          <mxGeometry x="60" width="220" height="30" as="geometry">
            <mxRectangle width="220" height="30" as="alternateBounds" />
          </mxGeometry>
        </mxCell>
        <mxCell id="EBOHfWfp8YWrXC1AQora-18" value="Perfil" style="shape=table;startSize=30;container=1;collapsible=1;childLayout=tableLayout;fixedRows=1;rowLines=0;fontStyle=1;align=center;resizeLast=1;" parent="1" vertex="1">
          <mxGeometry x="1319" y="253" width="280" height="90" as="geometry" />
        </mxCell>
        <mxCell id="EBOHfWfp8YWrXC1AQora-19" value="" style="shape=tableRow;horizontal=0;startSize=0;swimlaneHead=0;swimlaneBody=0;fillColor=none;collapsible=0;dropTarget=0;points=[[0,0.5],[1,0.5]];portConstraint=eastwest;top=0;left=0;right=0;bottom=1;" parent="EBOHfWfp8YWrXC1AQora-18" vertex="1">
          <mxGeometry y="30" width="280" height="30" as="geometry" />
        </mxCell>
        <mxCell id="EBOHfWfp8YWrXC1AQora-20" value="PK" style="shape=partialRectangle;connectable=0;fillColor=none;top=0;left=0;bottom=0;right=0;fontStyle=1;overflow=hidden;" parent="EBOHfWfp8YWrXC1AQora-19" vertex="1">
          <mxGeometry width="50" height="30" as="geometry">
            <mxRectangle width="50" height="30" as="alternateBounds" />
          </mxGeometry>
        </mxCell>
        <mxCell id="EBOHfWfp8YWrXC1AQora-21" value="perfil_ID int NOT NULL" style="shape=partialRectangle;connectable=0;fillColor=none;top=0;left=0;bottom=0;right=0;align=left;spacingLeft=6;fontStyle=5;overflow=hidden;" parent="EBOHfWfp8YWrXC1AQora-19" vertex="1">
          <mxGeometry x="50" width="230" height="30" as="geometry">
            <mxRectangle width="230" height="30" as="alternateBounds" />
          </mxGeometry>
        </mxCell>
        <mxCell id="EBOHfWfp8YWrXC1AQora-22" value="" style="shape=tableRow;horizontal=0;startSize=0;swimlaneHead=0;swimlaneBody=0;fillColor=none;collapsible=0;dropTarget=0;points=[[0,0.5],[1,0.5]];portConstraint=eastwest;top=0;left=0;right=0;bottom=0;" parent="EBOHfWfp8YWrXC1AQora-18" vertex="1">
          <mxGeometry y="60" width="280" height="30" as="geometry" />
        </mxCell>
        <mxCell id="EBOHfWfp8YWrXC1AQora-23" value="" style="shape=partialRectangle;connectable=0;fillColor=none;top=0;left=0;bottom=0;right=0;editable=1;overflow=hidden;" parent="EBOHfWfp8YWrXC1AQora-22" vertex="1">
          <mxGeometry width="50" height="30" as="geometry">
            <mxRectangle width="50" height="30" as="alternateBounds" />
          </mxGeometry>
        </mxCell>
        <mxCell id="EBOHfWfp8YWrXC1AQora-24" value="perfil_descricao char(50) NOT NULL" style="shape=partialRectangle;connectable=0;fillColor=none;top=0;left=0;bottom=0;right=0;align=left;spacingLeft=6;overflow=hidden;" parent="EBOHfWfp8YWrXC1AQora-22" vertex="1">
          <mxGeometry x="50" width="230" height="30" as="geometry">
            <mxRectangle width="230" height="30" as="alternateBounds" />
          </mxGeometry>
        </mxCell>
        <mxCell id="EBOHfWfp8YWrXC1AQora-31" value="Funcionario" style="shape=table;startSize=30;container=1;collapsible=1;childLayout=tableLayout;fixedRows=1;rowLines=0;fontStyle=1;align=center;resizeLast=1;" parent="1" vertex="1">
          <mxGeometry x="1319" y="78" width="280" height="90" as="geometry" />
        </mxCell>
        <mxCell id="EBOHfWfp8YWrXC1AQora-32" value="" style="shape=tableRow;horizontal=0;startSize=0;swimlaneHead=0;swimlaneBody=0;fillColor=none;collapsible=0;dropTarget=0;points=[[0,0.5],[1,0.5]];portConstraint=eastwest;top=0;left=0;right=0;bottom=1;" parent="EBOHfWfp8YWrXC1AQora-31" vertex="1">
          <mxGeometry y="30" width="280" height="30" as="geometry" />
        </mxCell>
        <mxCell id="EBOHfWfp8YWrXC1AQora-33" value="PK,FK1" style="shape=partialRectangle;connectable=0;fillColor=none;top=0;left=0;bottom=0;right=0;fontStyle=1;overflow=hidden;" parent="EBOHfWfp8YWrXC1AQora-32" vertex="1">
          <mxGeometry width="50" height="30" as="geometry">
            <mxRectangle width="50" height="30" as="alternateBounds" />
          </mxGeometry>
        </mxCell>
        <mxCell id="EBOHfWfp8YWrXC1AQora-34" value="funcionario_id int NOT NULL" style="shape=partialRectangle;connectable=0;fillColor=none;top=0;left=0;bottom=0;right=0;align=left;spacingLeft=6;fontStyle=5;overflow=hidden;" parent="EBOHfWfp8YWrXC1AQora-32" vertex="1">
          <mxGeometry x="50" width="230" height="30" as="geometry">
            <mxRectangle width="230" height="30" as="alternateBounds" />
          </mxGeometry>
        </mxCell>
        <mxCell id="EBOHfWfp8YWrXC1AQora-35" value="" style="shape=tableRow;horizontal=0;startSize=0;swimlaneHead=0;swimlaneBody=0;fillColor=none;collapsible=0;dropTarget=0;points=[[0,0.5],[1,0.5]];portConstraint=eastwest;top=0;left=0;right=0;bottom=0;" parent="EBOHfWfp8YWrXC1AQora-31" vertex="1">
          <mxGeometry y="60" width="280" height="30" as="geometry" />
        </mxCell>
        <mxCell id="EBOHfWfp8YWrXC1AQora-36" value="FK2" style="shape=partialRectangle;connectable=0;fillColor=none;top=0;left=0;bottom=0;right=0;editable=1;overflow=hidden;" parent="EBOHfWfp8YWrXC1AQora-35" vertex="1">
          <mxGeometry width="50" height="30" as="geometry">
            <mxRectangle width="50" height="30" as="alternateBounds" />
          </mxGeometry>
        </mxCell>
        <mxCell id="EBOHfWfp8YWrXC1AQora-37" value="funcionario_perfil int NOT NULL" style="shape=partialRectangle;connectable=0;fillColor=none;top=0;left=0;bottom=0;right=0;align=left;spacingLeft=6;overflow=hidden;" parent="EBOHfWfp8YWrXC1AQora-35" vertex="1">
          <mxGeometry x="50" width="230" height="30" as="geometry">
            <mxRectangle width="230" height="30" as="alternateBounds" />
          </mxGeometry>
        </mxCell>
        <mxCell id="EBOHfWfp8YWrXC1AQora-67" value="Cliente" style="shape=table;startSize=30;container=1;collapsible=1;childLayout=tableLayout;fixedRows=1;rowLines=0;fontStyle=1;align=center;resizeLast=1;" parent="1" vertex="1">
          <mxGeometry x="79" y="198" width="280" height="360" as="geometry" />
        </mxCell>
        <mxCell id="EBOHfWfp8YWrXC1AQora-68" value="" style="shape=tableRow;horizontal=0;startSize=0;swimlaneHead=0;swimlaneBody=0;fillColor=none;collapsible=0;dropTarget=0;points=[[0,0.5],[1,0.5]];portConstraint=eastwest;top=0;left=0;right=0;bottom=1;" parent="EBOHfWfp8YWrXC1AQora-67" vertex="1">
          <mxGeometry y="30" width="280" height="30" as="geometry" />
        </mxCell>
        <mxCell id="EBOHfWfp8YWrXC1AQora-69" value="PK, FK1" style="shape=partialRectangle;connectable=0;fillColor=none;top=0;left=0;bottom=0;right=0;fontStyle=1;overflow=hidden;" parent="EBOHfWfp8YWrXC1AQora-68" vertex="1">
          <mxGeometry width="50" height="30" as="geometry">
            <mxRectangle width="50" height="30" as="alternateBounds" />
          </mxGeometry>
        </mxCell>
        <mxCell id="EBOHfWfp8YWrXC1AQora-70" value="cliente_id int NOT NULL" style="shape=partialRectangle;connectable=0;fillColor=none;top=0;left=0;bottom=0;right=0;align=left;spacingLeft=6;fontStyle=5;overflow=hidden;" parent="EBOHfWfp8YWrXC1AQora-68" vertex="1">
          <mxGeometry x="50" width="230" height="30" as="geometry">
            <mxRectangle width="230" height="30" as="alternateBounds" />
          </mxGeometry>
        </mxCell>
        <mxCell id="EBOHfWfp8YWrXC1AQora-71" value="" style="shape=tableRow;horizontal=0;startSize=0;swimlaneHead=0;swimlaneBody=0;fillColor=none;collapsible=0;dropTarget=0;points=[[0,0.5],[1,0.5]];portConstraint=eastwest;top=0;left=0;right=0;bottom=0;" parent="EBOHfWfp8YWrXC1AQora-67" vertex="1">
          <mxGeometry y="60" width="280" height="30" as="geometry" />
        </mxCell>
        <mxCell id="EBOHfWfp8YWrXC1AQora-72" value="" style="shape=partialRectangle;connectable=0;fillColor=none;top=0;left=0;bottom=0;right=0;editable=1;overflow=hidden;" parent="EBOHfWfp8YWrXC1AQora-71" vertex="1">
          <mxGeometry width="50" height="30" as="geometry">
            <mxRectangle width="50" height="30" as="alternateBounds" />
          </mxGeometry>
        </mxCell>
        <mxCell id="EBOHfWfp8YWrXC1AQora-73" value="data_de_nascimento date" style="shape=partialRectangle;connectable=0;fillColor=none;top=0;left=0;bottom=0;right=0;align=left;spacingLeft=6;overflow=hidden;" parent="EBOHfWfp8YWrXC1AQora-71" vertex="1">
          <mxGeometry x="50" width="230" height="30" as="geometry">
            <mxRectangle width="230" height="30" as="alternateBounds" />
          </mxGeometry>
        </mxCell>
        <mxCell id="EBOHfWfp8YWrXC1AQora-74" value="" style="shape=tableRow;horizontal=0;startSize=0;swimlaneHead=0;swimlaneBody=0;fillColor=none;collapsible=0;dropTarget=0;points=[[0,0.5],[1,0.5]];portConstraint=eastwest;top=0;left=0;right=0;bottom=0;" parent="EBOHfWfp8YWrXC1AQora-67" vertex="1">
          <mxGeometry y="90" width="280" height="30" as="geometry" />
        </mxCell>
        <mxCell id="EBOHfWfp8YWrXC1AQora-75" value="" style="shape=partialRectangle;connectable=0;fillColor=none;top=0;left=0;bottom=0;right=0;editable=1;overflow=hidden;" parent="EBOHfWfp8YWrXC1AQora-74" vertex="1">
          <mxGeometry width="50" height="30" as="geometry">
            <mxRectangle width="50" height="30" as="alternateBounds" />
          </mxGeometry>
        </mxCell>
        <mxCell id="EBOHfWfp8YWrXC1AQora-76" value="genero tinyint" style="shape=partialRectangle;connectable=0;fillColor=none;top=0;left=0;bottom=0;right=0;align=left;spacingLeft=6;overflow=hidden;" parent="EBOHfWfp8YWrXC1AQora-74" vertex="1">
          <mxGeometry x="50" width="230" height="30" as="geometry">
            <mxRectangle width="230" height="30" as="alternateBounds" />
          </mxGeometry>
        </mxCell>
        <mxCell id="EBOHfWfp8YWrXC1AQora-77" value="" style="shape=tableRow;horizontal=0;startSize=0;swimlaneHead=0;swimlaneBody=0;fillColor=none;collapsible=0;dropTarget=0;points=[[0,0.5],[1,0.5]];portConstraint=eastwest;top=0;left=0;right=0;bottom=0;" parent="EBOHfWfp8YWrXC1AQora-67" vertex="1">
          <mxGeometry y="120" width="280" height="30" as="geometry" />
        </mxCell>
        <mxCell id="EBOHfWfp8YWrXC1AQora-78" value="FK2" style="shape=partialRectangle;connectable=0;fillColor=none;top=0;left=0;bottom=0;right=0;editable=1;overflow=hidden;" parent="EBOHfWfp8YWrXC1AQora-77" vertex="1">
          <mxGeometry width="50" height="30" as="geometry">
            <mxRectangle width="50" height="30" as="alternateBounds" />
          </mxGeometry>
        </mxCell>
        <mxCell id="EBOHfWfp8YWrXC1AQora-79" value="cliente_estado_civil int" style="shape=partialRectangle;connectable=0;fillColor=none;top=0;left=0;bottom=0;right=0;align=left;spacingLeft=6;overflow=hidden;" parent="EBOHfWfp8YWrXC1AQora-77" vertex="1">
          <mxGeometry x="50" width="230" height="30" as="geometry">
            <mxRectangle width="230" height="30" as="alternateBounds" />
          </mxGeometry>
        </mxCell>
        <mxCell id="EBOHfWfp8YWrXC1AQora-98" value="" style="shape=tableRow;horizontal=0;startSize=0;swimlaneHead=0;swimlaneBody=0;fillColor=none;collapsible=0;dropTarget=0;points=[[0,0.5],[1,0.5]];portConstraint=eastwest;top=0;left=0;right=0;bottom=0;" parent="EBOHfWfp8YWrXC1AQora-67" vertex="1">
          <mxGeometry y="150" width="280" height="30" as="geometry" />
        </mxCell>
        <mxCell id="EBOHfWfp8YWrXC1AQora-99" value="FK3" style="shape=partialRectangle;connectable=0;fillColor=none;top=0;left=0;bottom=0;right=0;fontStyle=0;overflow=hidden;" parent="EBOHfWfp8YWrXC1AQora-98" vertex="1">
          <mxGeometry width="50" height="30" as="geometry">
            <mxRectangle width="50" height="30" as="alternateBounds" />
          </mxGeometry>
        </mxCell>
        <mxCell id="EBOHfWfp8YWrXC1AQora-100" value="cliente_naturalidade int" style="shape=partialRectangle;connectable=0;fillColor=none;top=0;left=0;bottom=0;right=0;align=left;spacingLeft=6;fontStyle=0;overflow=hidden;" parent="EBOHfWfp8YWrXC1AQora-98" vertex="1">
          <mxGeometry x="50" width="230" height="30" as="geometry">
            <mxRectangle width="230" height="30" as="alternateBounds" />
          </mxGeometry>
        </mxCell>
        <mxCell id="EBOHfWfp8YWrXC1AQora-147" value="" style="shape=tableRow;horizontal=0;startSize=0;swimlaneHead=0;swimlaneBody=0;fillColor=none;collapsible=0;dropTarget=0;points=[[0,0.5],[1,0.5]];portConstraint=eastwest;top=0;left=0;right=0;bottom=0;" parent="EBOHfWfp8YWrXC1AQora-67" vertex="1">
          <mxGeometry y="180" width="280" height="30" as="geometry" />
        </mxCell>
        <mxCell id="EBOHfWfp8YWrXC1AQora-148" value="" style="shape=partialRectangle;connectable=0;fillColor=none;top=0;left=0;bottom=0;right=0;editable=1;overflow=hidden;" parent="EBOHfWfp8YWrXC1AQora-147" vertex="1">
          <mxGeometry width="50" height="30" as="geometry">
            <mxRectangle width="50" height="30" as="alternateBounds" />
          </mxGeometry>
        </mxCell>
        <mxCell id="EBOHfWfp8YWrXC1AQora-149" value="cliente_cep tinyint NOT NULL" style="shape=partialRectangle;connectable=0;fillColor=none;top=0;left=0;bottom=0;right=0;align=left;spacingLeft=6;overflow=hidden;" parent="EBOHfWfp8YWrXC1AQora-147" vertex="1">
          <mxGeometry x="50" width="230" height="30" as="geometry">
            <mxRectangle width="230" height="30" as="alternateBounds" />
          </mxGeometry>
        </mxCell>
        <mxCell id="EBOHfWfp8YWrXC1AQora-150" value="" style="shape=tableRow;horizontal=0;startSize=0;swimlaneHead=0;swimlaneBody=0;fillColor=none;collapsible=0;dropTarget=0;points=[[0,0.5],[1,0.5]];portConstraint=eastwest;top=0;left=0;right=0;bottom=0;" parent="EBOHfWfp8YWrXC1AQora-67" vertex="1">
          <mxGeometry y="210" width="280" height="30" as="geometry" />
        </mxCell>
        <mxCell id="EBOHfWfp8YWrXC1AQora-151" value="" style="shape=partialRectangle;connectable=0;fillColor=none;top=0;left=0;bottom=0;right=0;editable=1;overflow=hidden;" parent="EBOHfWfp8YWrXC1AQora-150" vertex="1">
          <mxGeometry width="50" height="30" as="geometry">
            <mxRectangle width="50" height="30" as="alternateBounds" />
          </mxGeometry>
        </mxCell>
        <mxCell id="EBOHfWfp8YWrXC1AQora-152" value="cliente_logradouro char(100) NOT NULL" style="shape=partialRectangle;connectable=0;fillColor=none;top=0;left=0;bottom=0;right=0;align=left;spacingLeft=6;overflow=hidden;" parent="EBOHfWfp8YWrXC1AQora-150" vertex="1">
          <mxGeometry x="50" width="230" height="30" as="geometry">
            <mxRectangle width="230" height="30" as="alternateBounds" />
          </mxGeometry>
        </mxCell>
        <mxCell id="EBOHfWfp8YWrXC1AQora-153" value="" style="shape=tableRow;horizontal=0;startSize=0;swimlaneHead=0;swimlaneBody=0;fillColor=none;collapsible=0;dropTarget=0;points=[[0,0.5],[1,0.5]];portConstraint=eastwest;top=0;left=0;right=0;bottom=0;" parent="EBOHfWfp8YWrXC1AQora-67" vertex="1">
          <mxGeometry y="240" width="280" height="30" as="geometry" />
        </mxCell>
        <mxCell id="EBOHfWfp8YWrXC1AQora-154" value="" style="shape=partialRectangle;connectable=0;fillColor=none;top=0;left=0;bottom=0;right=0;editable=1;overflow=hidden;" parent="EBOHfWfp8YWrXC1AQora-153" vertex="1">
          <mxGeometry width="50" height="30" as="geometry">
            <mxRectangle width="50" height="30" as="alternateBounds" />
          </mxGeometry>
        </mxCell>
        <mxCell id="EBOHfWfp8YWrXC1AQora-155" value="cliente_numero char(10)" style="shape=partialRectangle;connectable=0;fillColor=none;top=0;left=0;bottom=0;right=0;align=left;spacingLeft=6;overflow=hidden;" parent="EBOHfWfp8YWrXC1AQora-153" vertex="1">
          <mxGeometry x="50" width="230" height="30" as="geometry">
            <mxRectangle width="230" height="30" as="alternateBounds" />
          </mxGeometry>
        </mxCell>
        <mxCell id="EBOHfWfp8YWrXC1AQora-156" value="" style="shape=tableRow;horizontal=0;startSize=0;swimlaneHead=0;swimlaneBody=0;fillColor=none;collapsible=0;dropTarget=0;points=[[0,0.5],[1,0.5]];portConstraint=eastwest;top=0;left=0;right=0;bottom=0;" parent="EBOHfWfp8YWrXC1AQora-67" vertex="1">
          <mxGeometry y="270" width="280" height="30" as="geometry" />
        </mxCell>
        <mxCell id="EBOHfWfp8YWrXC1AQora-157" value="" style="shape=partialRectangle;connectable=0;fillColor=none;top=0;left=0;bottom=0;right=0;editable=1;overflow=hidden;" parent="EBOHfWfp8YWrXC1AQora-156" vertex="1">
          <mxGeometry width="50" height="30" as="geometry">
            <mxRectangle width="50" height="30" as="alternateBounds" />
          </mxGeometry>
        </mxCell>
        <mxCell id="EBOHfWfp8YWrXC1AQora-158" value="cliente_complemento char(100)" style="shape=partialRectangle;connectable=0;fillColor=none;top=0;left=0;bottom=0;right=0;align=left;spacingLeft=6;overflow=hidden;" parent="EBOHfWfp8YWrXC1AQora-156" vertex="1">
          <mxGeometry x="50" width="230" height="30" as="geometry">
            <mxRectangle width="230" height="30" as="alternateBounds" />
          </mxGeometry>
        </mxCell>
        <mxCell id="EBOHfWfp8YWrXC1AQora-159" value="" style="shape=tableRow;horizontal=0;startSize=0;swimlaneHead=0;swimlaneBody=0;fillColor=none;collapsible=0;dropTarget=0;points=[[0,0.5],[1,0.5]];portConstraint=eastwest;top=0;left=0;right=0;bottom=0;" parent="EBOHfWfp8YWrXC1AQora-67" vertex="1">
          <mxGeometry y="300" width="280" height="30" as="geometry" />
        </mxCell>
        <mxCell id="EBOHfWfp8YWrXC1AQora-160" value="" style="shape=partialRectangle;connectable=0;fillColor=none;top=0;left=0;bottom=0;right=0;editable=1;overflow=hidden;" parent="EBOHfWfp8YWrXC1AQora-159" vertex="1">
          <mxGeometry width="50" height="30" as="geometry">
            <mxRectangle width="50" height="30" as="alternateBounds" />
          </mxGeometry>
        </mxCell>
        <mxCell id="EBOHfWfp8YWrXC1AQora-161" value="cliente_bairro char(100) NOT NULL" style="shape=partialRectangle;connectable=0;fillColor=none;top=0;left=0;bottom=0;right=0;align=left;spacingLeft=6;overflow=hidden;" parent="EBOHfWfp8YWrXC1AQora-159" vertex="1">
          <mxGeometry x="50" width="230" height="30" as="geometry">
            <mxRectangle width="230" height="30" as="alternateBounds" />
          </mxGeometry>
        </mxCell>
        <mxCell id="EBOHfWfp8YWrXC1AQora-162" value="" style="shape=tableRow;horizontal=0;startSize=0;swimlaneHead=0;swimlaneBody=0;fillColor=none;collapsible=0;dropTarget=0;points=[[0,0.5],[1,0.5]];portConstraint=eastwest;top=0;left=0;right=0;bottom=0;" parent="EBOHfWfp8YWrXC1AQora-67" vertex="1">
          <mxGeometry y="330" width="280" height="30" as="geometry" />
        </mxCell>
        <mxCell id="EBOHfWfp8YWrXC1AQora-163" value="FK4" style="shape=partialRectangle;connectable=0;fillColor=none;top=0;left=0;bottom=0;right=0;fontStyle=0;overflow=hidden;" parent="EBOHfWfp8YWrXC1AQora-162" vertex="1">
          <mxGeometry width="50" height="30" as="geometry">
            <mxRectangle width="50" height="30" as="alternateBounds" />
          </mxGeometry>
        </mxCell>
        <mxCell id="EBOHfWfp8YWrXC1AQora-164" value="cliente_cidade int NOT NULL" style="shape=partialRectangle;connectable=0;fillColor=none;top=0;left=0;bottom=0;right=0;align=left;spacingLeft=6;fontStyle=0;overflow=hidden;" parent="EBOHfWfp8YWrXC1AQora-162" vertex="1">
          <mxGeometry x="50" width="230" height="30" as="geometry">
            <mxRectangle width="230" height="30" as="alternateBounds" />
          </mxGeometry>
        </mxCell>
        <mxCell id="EBOHfWfp8YWrXC1AQora-80" value="Estado_Civil" style="shape=table;startSize=30;container=1;collapsible=1;childLayout=tableLayout;fixedRows=1;rowLines=0;fontStyle=1;align=center;resizeLast=1;" parent="1" vertex="1">
          <mxGeometry x="79" y="903" width="280" height="90" as="geometry" />
        </mxCell>
        <mxCell id="EBOHfWfp8YWrXC1AQora-81" value="" style="shape=tableRow;horizontal=0;startSize=0;swimlaneHead=0;swimlaneBody=0;fillColor=none;collapsible=0;dropTarget=0;points=[[0,0.5],[1,0.5]];portConstraint=eastwest;top=0;left=0;right=0;bottom=1;" parent="EBOHfWfp8YWrXC1AQora-80" vertex="1">
          <mxGeometry y="30" width="280" height="30" as="geometry" />
        </mxCell>
        <mxCell id="EBOHfWfp8YWrXC1AQora-82" value="PK" style="shape=partialRectangle;connectable=0;fillColor=none;top=0;left=0;bottom=0;right=0;fontStyle=1;overflow=hidden;" parent="EBOHfWfp8YWrXC1AQora-81" vertex="1">
          <mxGeometry width="30" height="30" as="geometry">
            <mxRectangle width="30" height="30" as="alternateBounds" />
          </mxGeometry>
        </mxCell>
        <mxCell id="EBOHfWfp8YWrXC1AQora-83" value="estado_civil_id int NOT NULL" style="shape=partialRectangle;connectable=0;fillColor=none;top=0;left=0;bottom=0;right=0;align=left;spacingLeft=6;fontStyle=5;overflow=hidden;" parent="EBOHfWfp8YWrXC1AQora-81" vertex="1">
          <mxGeometry x="30" width="250" height="30" as="geometry">
            <mxRectangle width="250" height="30" as="alternateBounds" />
          </mxGeometry>
        </mxCell>
        <mxCell id="EBOHfWfp8YWrXC1AQora-84" value="" style="shape=tableRow;horizontal=0;startSize=0;swimlaneHead=0;swimlaneBody=0;fillColor=none;collapsible=0;dropTarget=0;points=[[0,0.5],[1,0.5]];portConstraint=eastwest;top=0;left=0;right=0;bottom=0;" parent="EBOHfWfp8YWrXC1AQora-80" vertex="1">
          <mxGeometry y="60" width="280" height="30" as="geometry" />
        </mxCell>
        <mxCell id="EBOHfWfp8YWrXC1AQora-85" value="" style="shape=partialRectangle;connectable=0;fillColor=none;top=0;left=0;bottom=0;right=0;editable=1;overflow=hidden;" parent="EBOHfWfp8YWrXC1AQora-84" vertex="1">
          <mxGeometry width="30" height="30" as="geometry">
            <mxRectangle width="30" height="30" as="alternateBounds" />
          </mxGeometry>
        </mxCell>
        <mxCell id="EBOHfWfp8YWrXC1AQora-86" value="estado_civil char(20) NOT NULL" style="shape=partialRectangle;connectable=0;fillColor=none;top=0;left=0;bottom=0;right=0;align=left;spacingLeft=6;overflow=hidden;" parent="EBOHfWfp8YWrXC1AQora-84" vertex="1">
          <mxGeometry x="30" width="250" height="30" as="geometry">
            <mxRectangle width="250" height="30" as="alternateBounds" />
          </mxGeometry>
        </mxCell>
        <mxCell id="EBOHfWfp8YWrXC1AQora-101" value="Cidade" style="shape=table;startSize=30;container=1;collapsible=1;childLayout=tableLayout;fixedRows=1;rowLines=0;fontStyle=1;align=center;resizeLast=1;" parent="1" vertex="1">
          <mxGeometry x="79" y="598" width="280" height="120" as="geometry" />
        </mxCell>
        <mxCell id="EBOHfWfp8YWrXC1AQora-102" value="" style="shape=tableRow;horizontal=0;startSize=0;swimlaneHead=0;swimlaneBody=0;fillColor=none;collapsible=0;dropTarget=0;points=[[0,0.5],[1,0.5]];portConstraint=eastwest;top=0;left=0;right=0;bottom=1;" parent="EBOHfWfp8YWrXC1AQora-101" vertex="1">
          <mxGeometry y="30" width="280" height="30" as="geometry" />
        </mxCell>
        <mxCell id="EBOHfWfp8YWrXC1AQora-103" value="PK" style="shape=partialRectangle;connectable=0;fillColor=none;top=0;left=0;bottom=0;right=0;fontStyle=1;overflow=hidden;" parent="EBOHfWfp8YWrXC1AQora-102" vertex="1">
          <mxGeometry width="30" height="30" as="geometry">
            <mxRectangle width="30" height="30" as="alternateBounds" />
          </mxGeometry>
        </mxCell>
        <mxCell id="EBOHfWfp8YWrXC1AQora-104" value="cidade_id int NOT NULL" style="shape=partialRectangle;connectable=0;fillColor=none;top=0;left=0;bottom=0;right=0;align=left;spacingLeft=6;fontStyle=5;overflow=hidden;" parent="EBOHfWfp8YWrXC1AQora-102" vertex="1">
          <mxGeometry x="30" width="250" height="30" as="geometry">
            <mxRectangle width="250" height="30" as="alternateBounds" />
          </mxGeometry>
        </mxCell>
        <mxCell id="EBOHfWfp8YWrXC1AQora-105" value="" style="shape=tableRow;horizontal=0;startSize=0;swimlaneHead=0;swimlaneBody=0;fillColor=none;collapsible=0;dropTarget=0;points=[[0,0.5],[1,0.5]];portConstraint=eastwest;top=0;left=0;right=0;bottom=0;" parent="EBOHfWfp8YWrXC1AQora-101" vertex="1">
          <mxGeometry y="60" width="280" height="30" as="geometry" />
        </mxCell>
        <mxCell id="EBOHfWfp8YWrXC1AQora-106" value="FK1" style="shape=partialRectangle;connectable=0;fillColor=none;top=0;left=0;bottom=0;right=0;editable=1;overflow=hidden;" parent="EBOHfWfp8YWrXC1AQora-105" vertex="1">
          <mxGeometry width="30" height="30" as="geometry">
            <mxRectangle width="30" height="30" as="alternateBounds" />
          </mxGeometry>
        </mxCell>
        <mxCell id="EBOHfWfp8YWrXC1AQora-107" value="cidade_estado tinyint NOT NULL" style="shape=partialRectangle;connectable=0;fillColor=none;top=0;left=0;bottom=0;right=0;align=left;spacingLeft=6;overflow=hidden;" parent="EBOHfWfp8YWrXC1AQora-105" vertex="1">
          <mxGeometry x="30" width="250" height="30" as="geometry">
            <mxRectangle width="250" height="30" as="alternateBounds" />
          </mxGeometry>
        </mxCell>
        <mxCell id="EBOHfWfp8YWrXC1AQora-108" value="" style="shape=tableRow;horizontal=0;startSize=0;swimlaneHead=0;swimlaneBody=0;fillColor=none;collapsible=0;dropTarget=0;points=[[0,0.5],[1,0.5]];portConstraint=eastwest;top=0;left=0;right=0;bottom=0;" parent="EBOHfWfp8YWrXC1AQora-101" vertex="1">
          <mxGeometry y="90" width="280" height="30" as="geometry" />
        </mxCell>
        <mxCell id="EBOHfWfp8YWrXC1AQora-109" value="" style="shape=partialRectangle;connectable=0;fillColor=none;top=0;left=0;bottom=0;right=0;editable=1;overflow=hidden;" parent="EBOHfWfp8YWrXC1AQora-108" vertex="1">
          <mxGeometry width="30" height="30" as="geometry">
            <mxRectangle width="30" height="30" as="alternateBounds" />
          </mxGeometry>
        </mxCell>
        <mxCell id="EBOHfWfp8YWrXC1AQora-110" value="cidade_nome char(50) NOT NULL" style="shape=partialRectangle;connectable=0;fillColor=none;top=0;left=0;bottom=0;right=0;align=left;spacingLeft=6;overflow=hidden;" parent="EBOHfWfp8YWrXC1AQora-108" vertex="1">
          <mxGeometry x="30" width="250" height="30" as="geometry">
            <mxRectangle width="250" height="30" as="alternateBounds" />
          </mxGeometry>
        </mxCell>
        <mxCell id="EBOHfWfp8YWrXC1AQora-114" value="Estado" style="shape=table;startSize=30;container=1;collapsible=1;childLayout=tableLayout;fixedRows=1;rowLines=0;fontStyle=1;align=center;resizeLast=1;" parent="1" vertex="1">
          <mxGeometry x="79" y="758" width="280" height="120" as="geometry" />
        </mxCell>
        <mxCell id="EBOHfWfp8YWrXC1AQora-115" value="" style="shape=tableRow;horizontal=0;startSize=0;swimlaneHead=0;swimlaneBody=0;fillColor=none;collapsible=0;dropTarget=0;points=[[0,0.5],[1,0.5]];portConstraint=eastwest;top=0;left=0;right=0;bottom=1;" parent="EBOHfWfp8YWrXC1AQora-114" vertex="1">
          <mxGeometry y="30" width="280" height="30" as="geometry" />
        </mxCell>
        <mxCell id="EBOHfWfp8YWrXC1AQora-116" value="PK" style="shape=partialRectangle;connectable=0;fillColor=none;top=0;left=0;bottom=0;right=0;fontStyle=1;overflow=hidden;" parent="EBOHfWfp8YWrXC1AQora-115" vertex="1">
          <mxGeometry width="30" height="30" as="geometry">
            <mxRectangle width="30" height="30" as="alternateBounds" />
          </mxGeometry>
        </mxCell>
        <mxCell id="EBOHfWfp8YWrXC1AQora-117" value="estado_id" style="shape=partialRectangle;connectable=0;fillColor=none;top=0;left=0;bottom=0;right=0;align=left;spacingLeft=6;fontStyle=5;overflow=hidden;" parent="EBOHfWfp8YWrXC1AQora-115" vertex="1">
          <mxGeometry x="30" width="250" height="30" as="geometry">
            <mxRectangle width="250" height="30" as="alternateBounds" />
          </mxGeometry>
        </mxCell>
        <mxCell id="EBOHfWfp8YWrXC1AQora-118" value="" style="shape=tableRow;horizontal=0;startSize=0;swimlaneHead=0;swimlaneBody=0;fillColor=none;collapsible=0;dropTarget=0;points=[[0,0.5],[1,0.5]];portConstraint=eastwest;top=0;left=0;right=0;bottom=0;" parent="EBOHfWfp8YWrXC1AQora-114" vertex="1">
          <mxGeometry y="60" width="280" height="30" as="geometry" />
        </mxCell>
        <mxCell id="EBOHfWfp8YWrXC1AQora-119" value="" style="shape=partialRectangle;connectable=0;fillColor=none;top=0;left=0;bottom=0;right=0;editable=1;overflow=hidden;" parent="EBOHfWfp8YWrXC1AQora-118" vertex="1">
          <mxGeometry width="30" height="30" as="geometry">
            <mxRectangle width="30" height="30" as="alternateBounds" />
          </mxGeometry>
        </mxCell>
        <mxCell id="EBOHfWfp8YWrXC1AQora-120" value="estado_nome char(20) NOT NULL" style="shape=partialRectangle;connectable=0;fillColor=none;top=0;left=0;bottom=0;right=0;align=left;spacingLeft=6;overflow=hidden;" parent="EBOHfWfp8YWrXC1AQora-118" vertex="1">
          <mxGeometry x="30" width="250" height="30" as="geometry">
            <mxRectangle width="250" height="30" as="alternateBounds" />
          </mxGeometry>
        </mxCell>
        <mxCell id="EBOHfWfp8YWrXC1AQora-121" value="" style="shape=tableRow;horizontal=0;startSize=0;swimlaneHead=0;swimlaneBody=0;fillColor=none;collapsible=0;dropTarget=0;points=[[0,0.5],[1,0.5]];portConstraint=eastwest;top=0;left=0;right=0;bottom=0;" parent="EBOHfWfp8YWrXC1AQora-114" vertex="1">
          <mxGeometry y="90" width="280" height="30" as="geometry" />
        </mxCell>
        <mxCell id="EBOHfWfp8YWrXC1AQora-122" value="" style="shape=partialRectangle;connectable=0;fillColor=none;top=0;left=0;bottom=0;right=0;editable=1;overflow=hidden;" parent="EBOHfWfp8YWrXC1AQora-121" vertex="1">
          <mxGeometry width="30" height="30" as="geometry">
            <mxRectangle width="30" height="30" as="alternateBounds" />
          </mxGeometry>
        </mxCell>
        <mxCell id="EBOHfWfp8YWrXC1AQora-123" value="estado_sigla char(3) NOT NULL" style="shape=partialRectangle;connectable=0;fillColor=none;top=0;left=0;bottom=0;right=0;align=left;spacingLeft=6;overflow=hidden;" parent="EBOHfWfp8YWrXC1AQora-121" vertex="1">
          <mxGeometry x="30" width="250" height="30" as="geometry">
            <mxRectangle width="250" height="30" as="alternateBounds" />
          </mxGeometry>
        </mxCell>
        <mxCell id="mT0ywA8BCh9S8RrEVg0q-1" value="Atendimento" style="shape=table;startSize=30;container=1;collapsible=1;childLayout=tableLayout;fixedRows=1;rowLines=0;fontStyle=1;align=center;resizeLast=1;" vertex="1" parent="1">
          <mxGeometry x="449" y="813" width="280" height="240" as="geometry" />
        </mxCell>
        <mxCell id="mT0ywA8BCh9S8RrEVg0q-14" value="" style="shape=tableRow;horizontal=0;startSize=0;swimlaneHead=0;swimlaneBody=0;fillColor=none;collapsible=0;dropTarget=0;points=[[0,0.5],[1,0.5]];portConstraint=eastwest;top=0;left=0;right=0;bottom=1;" vertex="1" parent="mT0ywA8BCh9S8RrEVg0q-1">
          <mxGeometry y="30" width="280" height="30" as="geometry" />
        </mxCell>
        <mxCell id="mT0ywA8BCh9S8RrEVg0q-15" value="PK" style="shape=partialRectangle;connectable=0;fillColor=none;top=0;left=0;bottom=0;right=0;fontStyle=1;overflow=hidden;" vertex="1" parent="mT0ywA8BCh9S8RrEVg0q-14">
          <mxGeometry width="60" height="30" as="geometry">
            <mxRectangle width="60" height="30" as="alternateBounds" />
          </mxGeometry>
        </mxCell>
        <mxCell id="mT0ywA8BCh9S8RrEVg0q-16" value="atendimento_protocolo int NOT NULL" style="shape=partialRectangle;connectable=0;fillColor=none;top=0;left=0;bottom=0;right=0;align=left;spacingLeft=6;fontStyle=5;overflow=hidden;" vertex="1" parent="mT0ywA8BCh9S8RrEVg0q-14">
          <mxGeometry x="60" width="220" height="30" as="geometry">
            <mxRectangle width="220" height="30" as="alternateBounds" />
          </mxGeometry>
        </mxCell>
        <mxCell id="mT0ywA8BCh9S8RrEVg0q-2" value="" style="shape=tableRow;horizontal=0;startSize=0;swimlaneHead=0;swimlaneBody=0;fillColor=none;collapsible=0;dropTarget=0;points=[[0,0.5],[1,0.5]];portConstraint=eastwest;top=0;left=0;right=0;bottom=0;" vertex="1" parent="mT0ywA8BCh9S8RrEVg0q-1">
          <mxGeometry y="60" width="280" height="30" as="geometry" />
        </mxCell>
        <mxCell id="mT0ywA8BCh9S8RrEVg0q-3" value="FK1" style="shape=partialRectangle;connectable=0;fillColor=none;top=0;left=0;bottom=0;right=0;fontStyle=0;overflow=hidden;" vertex="1" parent="mT0ywA8BCh9S8RrEVg0q-2">
          <mxGeometry width="60" height="30" as="geometry">
            <mxRectangle width="60" height="30" as="alternateBounds" />
          </mxGeometry>
        </mxCell>
        <mxCell id="mT0ywA8BCh9S8RrEVg0q-4" value="atendimento_cliente int NOT NULL" style="shape=partialRectangle;connectable=0;fillColor=none;top=0;left=0;bottom=0;right=0;align=left;spacingLeft=6;fontStyle=4;overflow=hidden;" vertex="1" parent="mT0ywA8BCh9S8RrEVg0q-2">
          <mxGeometry x="60" width="220" height="30" as="geometry">
            <mxRectangle width="220" height="30" as="alternateBounds" />
          </mxGeometry>
        </mxCell>
        <mxCell id="mT0ywA8BCh9S8RrEVg0q-31" value="" style="shape=tableRow;horizontal=0;startSize=0;swimlaneHead=0;swimlaneBody=0;fillColor=none;collapsible=0;dropTarget=0;points=[[0,0.5],[1,0.5]];portConstraint=eastwest;top=0;left=0;right=0;bottom=0;" vertex="1" parent="mT0ywA8BCh9S8RrEVg0q-1">
          <mxGeometry y="90" width="280" height="30" as="geometry" />
        </mxCell>
        <mxCell id="mT0ywA8BCh9S8RrEVg0q-32" value="FK2" style="shape=partialRectangle;connectable=0;fillColor=none;top=0;left=0;bottom=0;right=0;fontStyle=0;overflow=hidden;" vertex="1" parent="mT0ywA8BCh9S8RrEVg0q-31">
          <mxGeometry width="60" height="30" as="geometry">
            <mxRectangle width="60" height="30" as="alternateBounds" />
          </mxGeometry>
        </mxCell>
        <mxCell id="mT0ywA8BCh9S8RrEVg0q-33" value="atendimento_funcionario int NOT NULL" style="shape=partialRectangle;connectable=0;fillColor=none;top=0;left=0;bottom=0;right=0;align=left;spacingLeft=6;fontStyle=0;overflow=hidden;" vertex="1" parent="mT0ywA8BCh9S8RrEVg0q-31">
          <mxGeometry x="60" width="220" height="30" as="geometry">
            <mxRectangle width="220" height="30" as="alternateBounds" />
          </mxGeometry>
        </mxCell>
        <mxCell id="mT0ywA8BCh9S8RrEVg0q-5" value="" style="shape=tableRow;horizontal=0;startSize=0;swimlaneHead=0;swimlaneBody=0;fillColor=none;collapsible=0;dropTarget=0;points=[[0,0.5],[1,0.5]];portConstraint=eastwest;top=0;left=0;right=0;bottom=1;" vertex="1" parent="mT0ywA8BCh9S8RrEVg0q-1">
          <mxGeometry y="120" width="280" height="30" as="geometry" />
        </mxCell>
        <mxCell id="mT0ywA8BCh9S8RrEVg0q-6" value="FK3" style="shape=partialRectangle;connectable=0;fillColor=none;top=0;left=0;bottom=0;right=0;fontStyle=0;overflow=hidden;" vertex="1" parent="mT0ywA8BCh9S8RrEVg0q-5">
          <mxGeometry width="60" height="30" as="geometry">
            <mxRectangle width="60" height="30" as="alternateBounds" />
          </mxGeometry>
        </mxCell>
        <mxCell id="mT0ywA8BCh9S8RrEVg0q-7" value="atendimento_solicitacao int NOT NULL" style="shape=partialRectangle;connectable=0;fillColor=none;top=0;left=0;bottom=0;right=0;align=left;spacingLeft=6;fontStyle=4;overflow=hidden;" vertex="1" parent="mT0ywA8BCh9S8RrEVg0q-5">
          <mxGeometry x="60" width="220" height="30" as="geometry">
            <mxRectangle width="220" height="30" as="alternateBounds" />
          </mxGeometry>
        </mxCell>
        <mxCell id="mT0ywA8BCh9S8RrEVg0q-8" value="" style="shape=tableRow;horizontal=0;startSize=0;swimlaneHead=0;swimlaneBody=0;fillColor=none;collapsible=0;dropTarget=0;points=[[0,0.5],[1,0.5]];portConstraint=eastwest;top=0;left=0;right=0;bottom=0;" vertex="1" parent="mT0ywA8BCh9S8RrEVg0q-1">
          <mxGeometry y="150" width="280" height="30" as="geometry" />
        </mxCell>
        <mxCell id="mT0ywA8BCh9S8RrEVg0q-9" value="" style="shape=partialRectangle;connectable=0;fillColor=none;top=0;left=0;bottom=0;right=0;editable=1;overflow=hidden;" vertex="1" parent="mT0ywA8BCh9S8RrEVg0q-8">
          <mxGeometry width="60" height="30" as="geometry">
            <mxRectangle width="60" height="30" as="alternateBounds" />
          </mxGeometry>
        </mxCell>
        <mxCell id="mT0ywA8BCh9S8RrEVg0q-10" value="data datetime NOT NULL" style="shape=partialRectangle;connectable=0;fillColor=none;top=0;left=0;bottom=0;right=0;align=left;spacingLeft=6;overflow=hidden;" vertex="1" parent="mT0ywA8BCh9S8RrEVg0q-8">
          <mxGeometry x="60" width="220" height="30" as="geometry">
            <mxRectangle width="220" height="30" as="alternateBounds" />
          </mxGeometry>
        </mxCell>
        <mxCell id="mT0ywA8BCh9S8RrEVg0q-11" value="" style="shape=tableRow;horizontal=0;startSize=0;swimlaneHead=0;swimlaneBody=0;fillColor=none;collapsible=0;dropTarget=0;points=[[0,0.5],[1,0.5]];portConstraint=eastwest;top=0;left=0;right=0;bottom=0;" vertex="1" parent="mT0ywA8BCh9S8RrEVg0q-1">
          <mxGeometry y="180" width="280" height="30" as="geometry" />
        </mxCell>
        <mxCell id="mT0ywA8BCh9S8RrEVg0q-12" value="" style="shape=partialRectangle;connectable=0;fillColor=none;top=0;left=0;bottom=0;right=0;editable=1;overflow=hidden;" vertex="1" parent="mT0ywA8BCh9S8RrEVg0q-11">
          <mxGeometry width="60" height="30" as="geometry">
            <mxRectangle width="60" height="30" as="alternateBounds" />
          </mxGeometry>
        </mxCell>
        <mxCell id="mT0ywA8BCh9S8RrEVg0q-13" value="descricao char(200)" style="shape=partialRectangle;connectable=0;fillColor=none;top=0;left=0;bottom=0;right=0;align=left;spacingLeft=6;overflow=hidden;" vertex="1" parent="mT0ywA8BCh9S8RrEVg0q-11">
          <mxGeometry x="60" width="220" height="30" as="geometry">
            <mxRectangle width="220" height="30" as="alternateBounds" />
          </mxGeometry>
        </mxCell>
        <mxCell id="mT0ywA8BCh9S8RrEVg0q-38" value="" style="shape=tableRow;horizontal=0;startSize=0;swimlaneHead=0;swimlaneBody=0;fillColor=none;collapsible=0;dropTarget=0;points=[[0,0.5],[1,0.5]];portConstraint=eastwest;top=0;left=0;right=0;bottom=0;" vertex="1" parent="mT0ywA8BCh9S8RrEVg0q-1">
          <mxGeometry y="210" width="280" height="30" as="geometry" />
        </mxCell>
        <mxCell id="mT0ywA8BCh9S8RrEVg0q-39" value="" style="shape=partialRectangle;connectable=0;fillColor=none;top=0;left=0;bottom=0;right=0;editable=1;overflow=hidden;" vertex="1" parent="mT0ywA8BCh9S8RrEVg0q-38">
          <mxGeometry width="60" height="30" as="geometry">
            <mxRectangle width="60" height="30" as="alternateBounds" />
          </mxGeometry>
        </mxCell>
        <mxCell id="mT0ywA8BCh9S8RrEVg0q-40" value="avaliacao tinyint" style="shape=partialRectangle;connectable=0;fillColor=none;top=0;left=0;bottom=0;right=0;align=left;spacingLeft=6;overflow=hidden;" vertex="1" parent="mT0ywA8BCh9S8RrEVg0q-38">
          <mxGeometry x="60" width="220" height="30" as="geometry">
            <mxRectangle width="220" height="30" as="alternateBounds" />
          </mxGeometry>
        </mxCell>
        <mxCell id="mT0ywA8BCh9S8RrEVg0q-17" value="Solicitacao" style="shape=table;startSize=30;container=1;collapsible=1;childLayout=tableLayout;fixedRows=1;rowLines=0;fontStyle=1;align=center;resizeLast=1;" vertex="1" parent="1">
          <mxGeometry x="1019" y="938" width="280" height="90" as="geometry" />
        </mxCell>
        <mxCell id="mT0ywA8BCh9S8RrEVg0q-18" value="" style="shape=tableRow;horizontal=0;startSize=0;swimlaneHead=0;swimlaneBody=0;fillColor=none;collapsible=0;dropTarget=0;points=[[0,0.5],[1,0.5]];portConstraint=eastwest;top=0;left=0;right=0;bottom=1;" vertex="1" parent="mT0ywA8BCh9S8RrEVg0q-17">
          <mxGeometry y="30" width="280" height="30" as="geometry" />
        </mxCell>
        <mxCell id="mT0ywA8BCh9S8RrEVg0q-19" value="PK" style="shape=partialRectangle;connectable=0;fillColor=none;top=0;left=0;bottom=0;right=0;fontStyle=1;overflow=hidden;" vertex="1" parent="mT0ywA8BCh9S8RrEVg0q-18">
          <mxGeometry width="60" height="30" as="geometry">
            <mxRectangle width="60" height="30" as="alternateBounds" />
          </mxGeometry>
        </mxCell>
        <mxCell id="mT0ywA8BCh9S8RrEVg0q-20" value="solicitacao_id int NOT NULL" style="shape=partialRectangle;connectable=0;fillColor=none;top=0;left=0;bottom=0;right=0;align=left;spacingLeft=6;fontStyle=5;overflow=hidden;" vertex="1" parent="mT0ywA8BCh9S8RrEVg0q-18">
          <mxGeometry x="60" width="220" height="30" as="geometry">
            <mxRectangle width="220" height="30" as="alternateBounds" />
          </mxGeometry>
        </mxCell>
        <mxCell id="mT0ywA8BCh9S8RrEVg0q-21" value="" style="shape=tableRow;horizontal=0;startSize=0;swimlaneHead=0;swimlaneBody=0;fillColor=none;collapsible=0;dropTarget=0;points=[[0,0.5],[1,0.5]];portConstraint=eastwest;top=0;left=0;right=0;bottom=0;" vertex="1" parent="mT0ywA8BCh9S8RrEVg0q-17">
          <mxGeometry y="60" width="280" height="30" as="geometry" />
        </mxCell>
        <mxCell id="mT0ywA8BCh9S8RrEVg0q-22" value="" style="shape=partialRectangle;connectable=0;fillColor=none;top=0;left=0;bottom=0;right=0;editable=1;overflow=hidden;" vertex="1" parent="mT0ywA8BCh9S8RrEVg0q-21">
          <mxGeometry width="60" height="30" as="geometry">
            <mxRectangle width="60" height="30" as="alternateBounds" />
          </mxGeometry>
        </mxCell>
        <mxCell id="mT0ywA8BCh9S8RrEVg0q-23" value="solicitacao char(100) NOT NULL" style="shape=partialRectangle;connectable=0;fillColor=none;top=0;left=0;bottom=0;right=0;align=left;spacingLeft=6;overflow=hidden;" vertex="1" parent="mT0ywA8BCh9S8RrEVg0q-21">
          <mxGeometry x="60" width="220" height="30" as="geometry">
            <mxRectangle width="220" height="30" as="alternateBounds" />
          </mxGeometry>
        </mxCell>
        <mxCell id="mT0ywA8BCh9S8RrEVg0q-43" value="" style="edgeStyle=orthogonalEdgeStyle;fontSize=12;html=1;endArrow=ERzeroToMany;startArrow=ERmandOne;rounded=0;exitX=0;exitY=0.5;exitDx=0;exitDy=0;" edge="1" parent="1" source="mT0ywA8BCh9S8RrEVg0q-18" target="mT0ywA8BCh9S8RrEVg0q-5">
          <mxGeometry width="100" height="100" relative="1" as="geometry">
            <mxPoint x="1329" y="648" as="sourcePoint" />
            <mxPoint x="1429" y="548" as="targetPoint" />
          </mxGeometry>
        </mxCell>
        <mxCell id="mT0ywA8BCh9S8RrEVg0q-45" style="edgeStyle=orthogonalEdgeStyle;rounded=0;orthogonalLoop=1;jettySize=auto;html=1;fontSize=10;fillColor=#fff2cc;strokeColor=#d6b656;" edge="1" parent="1" source="mT0ywA8BCh9S8RrEVg0q-44" target="mT0ywA8BCh9S8RrEVg0q-38">
          <mxGeometry relative="1" as="geometry" />
        </mxCell>
        <mxCell id="mT0ywA8BCh9S8RrEVg0q-44" value="&lt;p&gt;&lt;b style=&quot;font-size: 10px&quot;&gt;Avaliação:&lt;/b&gt;&lt;/p&gt;&lt;p&gt;&lt;font style=&quot;font-size: 10px ; line-height: 1&quot;&gt;Nota de 1 a 5 para o atendimento sendo 1 para um péssimo atendimento e 5 para um ótimo atendimento.&lt;/font&gt;&lt;/p&gt;" style="text;html=1;strokeColor=#d6b656;fillColor=#fff2cc;spacing=5;spacingTop=-20;whiteSpace=wrap;overflow=hidden;rounded=0;glass=1;shadow=1;" vertex="1" parent="1">
          <mxGeometry x="802" y="993" width="140" height="90" as="geometry" />
        </mxCell>
        <mxCell id="mT0ywA8BCh9S8RrEVg0q-51" value="" style="edgeStyle=elbowEdgeStyle;fontSize=12;html=1;endArrow=ERzeroToMany;startArrow=ERzeroToOne;rounded=0;" edge="1" parent="1" source="EBOHfWfp8YWrXC1AQora-81" target="EBOHfWfp8YWrXC1AQora-77">
          <mxGeometry width="100" height="100" relative="1" as="geometry">
            <mxPoint x="770" y="1353" as="sourcePoint" />
            <mxPoint x="-71" y="588" as="targetPoint" />
            <Array as="points">
              <mxPoint x="19" y="628" />
            </Array>
          </mxGeometry>
        </mxCell>
        <mxCell id="mT0ywA8BCh9S8RrEVg0q-52" value="" style="edgeStyle=orthogonalEdgeStyle;fontSize=12;html=1;endArrow=ERzeroToMany;startArrow=ERzeroToOne;rounded=0;elbow=vertical;exitX=1.001;exitY=0.333;exitDx=0;exitDy=0;exitPerimeter=0;" edge="1" parent="1" source="EBOHfWfp8YWrXC1AQora-102" target="EBOHfWfp8YWrXC1AQora-98">
          <mxGeometry width="100" height="100" relative="1" as="geometry">
            <mxPoint x="419" y="738" as="sourcePoint" />
            <mxPoint x="1129" y="918" as="targetPoint" />
            <Array as="points">
              <mxPoint x="379" y="638" />
              <mxPoint x="379" y="363" />
            </Array>
          </mxGeometry>
        </mxCell>
        <mxCell id="mT0ywA8BCh9S8RrEVg0q-53" value="" style="edgeStyle=elbowEdgeStyle;fontSize=12;html=1;endArrow=ERoneToMany;startArrow=ERmandOne;rounded=0;exitX=0;exitY=0.5;exitDx=0;exitDy=0;entryX=0;entryY=0.5;entryDx=0;entryDy=0;" edge="1" parent="1" source="EBOHfWfp8YWrXC1AQora-115" target="EBOHfWfp8YWrXC1AQora-105">
          <mxGeometry width="100" height="100" relative="1" as="geometry">
            <mxPoint x="569" y="1068" as="sourcePoint" />
            <mxPoint x="679" y="1118" as="targetPoint" />
            <Array as="points">
              <mxPoint x="49" y="948" />
            </Array>
          </mxGeometry>
        </mxCell>
        <mxCell id="mT0ywA8BCh9S8RrEVg0q-54" value="" style="edgeStyle=elbowEdgeStyle;fontSize=12;html=1;endArrow=ERzeroToMany;startArrow=ERmandOne;rounded=0;exitX=0;exitY=0.5;exitDx=0;exitDy=0;entryX=0;entryY=0.5;entryDx=0;entryDy=0;" edge="1" parent="1" source="EBOHfWfp8YWrXC1AQora-102" target="EBOHfWfp8YWrXC1AQora-162">
          <mxGeometry width="100" height="100" relative="1" as="geometry">
            <mxPoint x="669" y="1068" as="sourcePoint" />
            <mxPoint x="879" y="838" as="targetPoint" />
            <Array as="points">
              <mxPoint x="49" y="808" />
            </Array>
          </mxGeometry>
        </mxCell>
        <mxCell id="mT0ywA8BCh9S8RrEVg0q-55" value="" style="edgeStyle=elbowEdgeStyle;fontSize=12;html=1;endArrow=ERzeroToMany;startArrow=ERmandOne;rounded=0;exitX=1;exitY=0.5;exitDx=0;exitDy=0;entryX=1;entryY=0.5;entryDx=0;entryDy=0;" edge="1" parent="1" source="EBOHfWfp8YWrXC1AQora-19" target="EBOHfWfp8YWrXC1AQora-35">
          <mxGeometry width="100" height="100" relative="1" as="geometry">
            <mxPoint x="639" y="708" as="sourcePoint" />
            <mxPoint x="739" y="608" as="targetPoint" />
            <Array as="points">
              <mxPoint x="1619" y="228" />
              <mxPoint x="449" y="598" />
              <mxPoint x="449" y="588" />
            </Array>
          </mxGeometry>
        </mxCell>
        <mxCell id="mT0ywA8BCh9S8RrEVg0q-57" value="" style="fontSize=12;html=1;endArrow=ERzeroToMany;startArrow=ERmandOne;rounded=0;exitX=1;exitY=0.5;exitDx=0;exitDy=0;" edge="1" parent="1" source="C-vyLk0tnHw3VtMMgP7b-24" target="EBOHfWfp8YWrXC1AQora-32">
          <mxGeometry width="100" height="100" relative="1" as="geometry">
            <mxPoint x="591" y="293" as="sourcePoint" />
            <mxPoint x="1009" y="448" as="targetPoint" />
          </mxGeometry>
        </mxCell>
        <mxCell id="mT0ywA8BCh9S8RrEVg0q-58" value="" style="edgeStyle=orthogonalEdgeStyle;fontSize=12;html=1;endArrow=ERzeroToMany;startArrow=ERmandOne;rounded=0;entryX=0;entryY=0.5;entryDx=0;entryDy=0;exitX=0;exitY=0.5;exitDx=0;exitDy=0;elbow=vertical;" edge="1" parent="1" source="C-vyLk0tnHw3VtMMgP7b-24" target="EBOHfWfp8YWrXC1AQora-68">
          <mxGeometry width="100" height="100" relative="1" as="geometry">
            <mxPoint x="609" y="328" as="sourcePoint" />
            <mxPoint x="819" y="448" as="targetPoint" />
            <Array as="points">
              <mxPoint x="49" y="123" />
              <mxPoint x="49" y="243" />
            </Array>
          </mxGeometry>
        </mxCell>
        <mxCell id="mT0ywA8BCh9S8RrEVg0q-81" style="edgeStyle=orthogonalEdgeStyle;rounded=0;orthogonalLoop=1;jettySize=auto;html=1;entryX=1;entryY=0.5;entryDx=0;entryDy=0;fontSize=10;elbow=vertical;fillColor=#fff2cc;strokeColor=#d6b656;exitX=1;exitY=0.5;exitDx=0;exitDy=0;" edge="1" parent="1" source="mT0ywA8BCh9S8RrEVg0q-59" target="EBOHfWfp8YWrXC1AQora-22">
          <mxGeometry relative="1" as="geometry" />
        </mxCell>
        <mxCell id="mT0ywA8BCh9S8RrEVg0q-59" value="&lt;p&gt;&lt;b style=&quot;font-size: 10px&quot;&gt;Perfil:&lt;/b&gt;&lt;/p&gt;&lt;p&gt;&lt;font style=&quot;font-size: 10px ; line-height: 1&quot;&gt;Perfil de acesso do funcionario ao sistema. Ex.: administrador, gerente, vendedor, etc.&lt;/font&gt;&lt;/p&gt;" style="text;html=1;strokeColor=#d6b656;fillColor=#fff2cc;spacing=5;spacingTop=-20;whiteSpace=wrap;overflow=hidden;rounded=0;glass=1;shadow=1;" vertex="1" parent="1">
          <mxGeometry x="1449" y="373" width="150" height="80" as="geometry" />
        </mxCell>
        <mxCell id="mT0ywA8BCh9S8RrEVg0q-84" style="edgeStyle=orthogonalEdgeStyle;rounded=0;orthogonalLoop=1;jettySize=auto;html=1;fontSize=10;elbow=vertical;fillColor=#fff2cc;strokeColor=#d6b656;" edge="1" parent="1" source="mT0ywA8BCh9S8RrEVg0q-82" target="mT0ywA8BCh9S8RrEVg0q-21">
          <mxGeometry relative="1" as="geometry" />
        </mxCell>
        <mxCell id="mT0ywA8BCh9S8RrEVg0q-82" value="&lt;p&gt;&lt;b style=&quot;font-size: 10px&quot;&gt;Solicitação:&lt;/b&gt;&lt;/p&gt;&lt;p&gt;&lt;font style=&quot;font-size: 10px ; line-height: 1&quot;&gt;Define o perfil necessário para que um funcionário realize o atendimento.&lt;/font&gt;&lt;/p&gt;" style="text;html=1;strokeColor=#d6b656;fillColor=#fff2cc;spacing=5;spacingTop=-20;whiteSpace=wrap;overflow=hidden;rounded=0;glass=1;shadow=1;" vertex="1" parent="1">
          <mxGeometry x="1349" y="973" width="140" height="80" as="geometry" />
        </mxCell>
        <mxCell id="mT0ywA8BCh9S8RrEVg0q-86" value="" style="edgeStyle=orthogonalEdgeStyle;fontSize=12;html=1;endArrow=ERzeroToMany;startArrow=ERmandOne;rounded=0;elbow=vertical;exitX=1;exitY=0.5;exitDx=0;exitDy=0;" edge="1" parent="1" source="EBOHfWfp8YWrXC1AQora-32" target="mT0ywA8BCh9S8RrEVg0q-31">
          <mxGeometry width="100" height="100" relative="1" as="geometry">
            <mxPoint x="799" y="648" as="sourcePoint" />
            <mxPoint x="899" y="548" as="targetPoint" />
            <Array as="points">
              <mxPoint x="1639" y="123" />
              <mxPoint x="1639" y="918" />
            </Array>
          </mxGeometry>
        </mxCell>
        <mxCell id="mT0ywA8BCh9S8RrEVg0q-87" value="Loja" style="shape=table;startSize=30;container=1;collapsible=1;childLayout=tableLayout;fixedRows=1;rowLines=0;fontStyle=1;align=center;resizeLast=1;shadow=1;glass=1;labelBackgroundColor=#ffffff;fontSize=12;strokeColor=#000000;fillColor=default;" vertex="1" parent="1">
          <mxGeometry x="1319" y="464.5" width="280" height="120" as="geometry" />
        </mxCell>
        <mxCell id="mT0ywA8BCh9S8RrEVg0q-88" value="" style="shape=tableRow;horizontal=0;startSize=0;swimlaneHead=0;swimlaneBody=0;fillColor=none;collapsible=0;dropTarget=0;points=[[0,0.5],[1,0.5]];portConstraint=eastwest;top=0;left=0;right=0;bottom=1;shadow=1;glass=1;labelBackgroundColor=#ffffff;fontSize=10;strokeColor=#000000;" vertex="1" parent="mT0ywA8BCh9S8RrEVg0q-87">
          <mxGeometry y="30" width="280" height="30" as="geometry" />
        </mxCell>
        <mxCell id="mT0ywA8BCh9S8RrEVg0q-89" value="PK" style="shape=partialRectangle;connectable=0;fillColor=none;top=0;left=0;bottom=0;right=0;fontStyle=1;overflow=hidden;shadow=1;glass=1;labelBackgroundColor=#ffffff;fontSize=12;strokeColor=#000000;" vertex="1" parent="mT0ywA8BCh9S8RrEVg0q-88">
          <mxGeometry width="60" height="30" as="geometry">
            <mxRectangle width="60" height="30" as="alternateBounds" />
          </mxGeometry>
        </mxCell>
        <mxCell id="mT0ywA8BCh9S8RrEVg0q-90" value="loja_id int NOT NULL" style="shape=partialRectangle;connectable=0;fillColor=none;top=0;left=0;bottom=0;right=0;align=left;spacingLeft=6;fontStyle=5;overflow=hidden;shadow=1;glass=1;labelBackgroundColor=#ffffff;fontSize=12;strokeColor=#000000;" vertex="1" parent="mT0ywA8BCh9S8RrEVg0q-88">
          <mxGeometry x="60" width="220" height="30" as="geometry">
            <mxRectangle width="220" height="30" as="alternateBounds" />
          </mxGeometry>
        </mxCell>
        <mxCell id="mT0ywA8BCh9S8RrEVg0q-91" value="" style="shape=tableRow;horizontal=0;startSize=0;swimlaneHead=0;swimlaneBody=0;fillColor=none;collapsible=0;dropTarget=0;points=[[0,0.5],[1,0.5]];portConstraint=eastwest;top=0;left=0;right=0;bottom=0;shadow=1;glass=1;labelBackgroundColor=#ffffff;fontSize=10;strokeColor=#000000;" vertex="1" parent="mT0ywA8BCh9S8RrEVg0q-87">
          <mxGeometry y="60" width="280" height="30" as="geometry" />
        </mxCell>
        <mxCell id="mT0ywA8BCh9S8RrEVg0q-92" value="" style="shape=partialRectangle;connectable=0;fillColor=none;top=0;left=0;bottom=0;right=0;editable=1;overflow=hidden;shadow=1;glass=1;labelBackgroundColor=#ffffff;fontSize=10;strokeColor=#000000;" vertex="1" parent="mT0ywA8BCh9S8RrEVg0q-91">
          <mxGeometry width="60" height="30" as="geometry">
            <mxRectangle width="60" height="30" as="alternateBounds" />
          </mxGeometry>
        </mxCell>
        <mxCell id="mT0ywA8BCh9S8RrEVg0q-93" value="loja_nome char(50)" style="shape=partialRectangle;connectable=0;fillColor=none;top=0;left=0;bottom=0;right=0;align=left;spacingLeft=6;overflow=hidden;shadow=1;glass=1;labelBackgroundColor=#ffffff;fontSize=12;strokeColor=#000000;" vertex="1" parent="mT0ywA8BCh9S8RrEVg0q-91">
          <mxGeometry x="60" width="220" height="30" as="geometry">
            <mxRectangle width="220" height="30" as="alternateBounds" />
          </mxGeometry>
        </mxCell>
        <mxCell id="mT0ywA8BCh9S8RrEVg0q-94" value="" style="shape=tableRow;horizontal=0;startSize=0;swimlaneHead=0;swimlaneBody=0;fillColor=none;collapsible=0;dropTarget=0;points=[[0,0.5],[1,0.5]];portConstraint=eastwest;top=0;left=0;right=0;bottom=0;shadow=1;glass=1;labelBackgroundColor=#ffffff;fontSize=10;strokeColor=#000000;" vertex="1" parent="mT0ywA8BCh9S8RrEVg0q-87">
          <mxGeometry y="90" width="280" height="30" as="geometry" />
        </mxCell>
        <mxCell id="mT0ywA8BCh9S8RrEVg0q-95" value="" style="shape=partialRectangle;connectable=0;fillColor=none;top=0;left=0;bottom=0;right=0;editable=1;overflow=hidden;shadow=1;glass=1;labelBackgroundColor=#ffffff;fontSize=10;strokeColor=#000000;" vertex="1" parent="mT0ywA8BCh9S8RrEVg0q-94">
          <mxGeometry width="60" height="30" as="geometry">
            <mxRectangle width="60" height="30" as="alternateBounds" />
          </mxGeometry>
        </mxCell>
        <mxCell id="mT0ywA8BCh9S8RrEVg0q-96" value="loja_geolocalizacao char(40)" style="shape=partialRectangle;connectable=0;fillColor=none;top=0;left=0;bottom=0;right=0;align=left;spacingLeft=6;overflow=hidden;shadow=1;glass=1;labelBackgroundColor=#ffffff;fontSize=12;strokeColor=#000000;" vertex="1" parent="mT0ywA8BCh9S8RrEVg0q-94">
          <mxGeometry x="60" width="220" height="30" as="geometry">
            <mxRectangle width="220" height="30" as="alternateBounds" />
          </mxGeometry>
        </mxCell>
        <mxCell id="mT0ywA8BCh9S8RrEVg0q-100" value="Categoria" style="shape=table;startSize=30;container=1;collapsible=1;childLayout=tableLayout;fixedRows=1;rowLines=0;fontStyle=1;align=center;resizeLast=1;shadow=1;glass=1;labelBackgroundColor=#ffffff;fontSize=12;strokeColor=#000000;fillColor=default;" vertex="1" parent="1">
          <mxGeometry x="1319" y="703" width="280" height="90" as="geometry" />
        </mxCell>
        <mxCell id="mT0ywA8BCh9S8RrEVg0q-101" value="" style="shape=tableRow;horizontal=0;startSize=0;swimlaneHead=0;swimlaneBody=0;fillColor=none;collapsible=0;dropTarget=0;points=[[0,0.5],[1,0.5]];portConstraint=eastwest;top=0;left=0;right=0;bottom=1;shadow=1;glass=1;labelBackgroundColor=#ffffff;fontSize=10;strokeColor=#000000;" vertex="1" parent="mT0ywA8BCh9S8RrEVg0q-100">
          <mxGeometry y="30" width="280" height="30" as="geometry" />
        </mxCell>
        <mxCell id="mT0ywA8BCh9S8RrEVg0q-102" value="PK" style="shape=partialRectangle;connectable=0;fillColor=none;top=0;left=0;bottom=0;right=0;fontStyle=1;overflow=hidden;shadow=1;glass=1;labelBackgroundColor=#ffffff;fontSize=12;strokeColor=#000000;" vertex="1" parent="mT0ywA8BCh9S8RrEVg0q-101">
          <mxGeometry width="60" height="30" as="geometry">
            <mxRectangle width="60" height="30" as="alternateBounds" />
          </mxGeometry>
        </mxCell>
        <mxCell id="mT0ywA8BCh9S8RrEVg0q-103" value="categoria_id int NOT NULL" style="shape=partialRectangle;connectable=0;fillColor=none;top=0;left=0;bottom=0;right=0;align=left;spacingLeft=6;fontStyle=5;overflow=hidden;shadow=1;glass=1;labelBackgroundColor=#ffffff;fontSize=12;strokeColor=#000000;" vertex="1" parent="mT0ywA8BCh9S8RrEVg0q-101">
          <mxGeometry x="60" width="220" height="30" as="geometry">
            <mxRectangle width="220" height="30" as="alternateBounds" />
          </mxGeometry>
        </mxCell>
        <mxCell id="mT0ywA8BCh9S8RrEVg0q-104" value="" style="shape=tableRow;horizontal=0;startSize=0;swimlaneHead=0;swimlaneBody=0;fillColor=none;collapsible=0;dropTarget=0;points=[[0,0.5],[1,0.5]];portConstraint=eastwest;top=0;left=0;right=0;bottom=0;shadow=1;glass=1;labelBackgroundColor=#ffffff;fontSize=10;strokeColor=#000000;" vertex="1" parent="mT0ywA8BCh9S8RrEVg0q-100">
          <mxGeometry y="60" width="280" height="30" as="geometry" />
        </mxCell>
        <mxCell id="mT0ywA8BCh9S8RrEVg0q-105" value="" style="shape=partialRectangle;connectable=0;fillColor=none;top=0;left=0;bottom=0;right=0;editable=1;overflow=hidden;shadow=1;glass=1;labelBackgroundColor=#ffffff;fontSize=12;strokeColor=#000000;" vertex="1" parent="mT0ywA8BCh9S8RrEVg0q-104">
          <mxGeometry width="60" height="30" as="geometry">
            <mxRectangle width="60" height="30" as="alternateBounds" />
          </mxGeometry>
        </mxCell>
        <mxCell id="mT0ywA8BCh9S8RrEVg0q-106" value="categoria char(50) NOT NULL" style="shape=partialRectangle;connectable=0;fillColor=none;top=0;left=0;bottom=0;right=0;align=left;spacingLeft=6;overflow=hidden;shadow=1;glass=1;labelBackgroundColor=#ffffff;fontSize=12;strokeColor=#000000;" vertex="1" parent="mT0ywA8BCh9S8RrEVg0q-104">
          <mxGeometry x="60" width="220" height="30" as="geometry">
            <mxRectangle width="220" height="30" as="alternateBounds" />
          </mxGeometry>
        </mxCell>
        <mxCell id="mT0ywA8BCh9S8RrEVg0q-113" value="Produto" style="shape=table;startSize=30;container=1;collapsible=1;childLayout=tableLayout;fixedRows=1;rowLines=0;fontStyle=1;align=center;resizeLast=1;shadow=1;glass=1;labelBackgroundColor=#ffffff;fontSize=12;strokeColor=#000000;fillColor=default;" vertex="1" parent="1">
          <mxGeometry x="802" y="418" width="280" height="150" as="geometry" />
        </mxCell>
        <mxCell id="mT0ywA8BCh9S8RrEVg0q-114" value="" style="shape=tableRow;horizontal=0;startSize=0;swimlaneHead=0;swimlaneBody=0;fillColor=none;collapsible=0;dropTarget=0;points=[[0,0.5],[1,0.5]];portConstraint=eastwest;top=0;left=0;right=0;bottom=1;shadow=1;glass=1;labelBackgroundColor=#ffffff;fontSize=10;strokeColor=#000000;" vertex="1" parent="mT0ywA8BCh9S8RrEVg0q-113">
          <mxGeometry y="30" width="280" height="30" as="geometry" />
        </mxCell>
        <mxCell id="mT0ywA8BCh9S8RrEVg0q-115" value="PK" style="shape=partialRectangle;connectable=0;fillColor=none;top=0;left=0;bottom=0;right=0;fontStyle=1;overflow=hidden;shadow=1;glass=1;labelBackgroundColor=#ffffff;fontSize=10;strokeColor=#000000;" vertex="1" parent="mT0ywA8BCh9S8RrEVg0q-114">
          <mxGeometry width="60" height="30" as="geometry">
            <mxRectangle width="60" height="30" as="alternateBounds" />
          </mxGeometry>
        </mxCell>
        <mxCell id="mT0ywA8BCh9S8RrEVg0q-116" value="produto_id INT NOT NULL" style="shape=partialRectangle;connectable=0;fillColor=none;top=0;left=0;bottom=0;right=0;align=left;spacingLeft=6;fontStyle=5;overflow=hidden;shadow=1;glass=1;labelBackgroundColor=#ffffff;fontSize=10;strokeColor=#000000;" vertex="1" parent="mT0ywA8BCh9S8RrEVg0q-114">
          <mxGeometry x="60" width="220" height="30" as="geometry">
            <mxRectangle width="220" height="30" as="alternateBounds" />
          </mxGeometry>
        </mxCell>
        <mxCell id="mT0ywA8BCh9S8RrEVg0q-117" value="" style="shape=tableRow;horizontal=0;startSize=0;swimlaneHead=0;swimlaneBody=0;fillColor=none;collapsible=0;dropTarget=0;points=[[0,0.5],[1,0.5]];portConstraint=eastwest;top=0;left=0;right=0;bottom=0;shadow=1;glass=1;labelBackgroundColor=#ffffff;fontSize=10;strokeColor=#000000;" vertex="1" parent="mT0ywA8BCh9S8RrEVg0q-113">
          <mxGeometry y="60" width="280" height="30" as="geometry" />
        </mxCell>
        <mxCell id="mT0ywA8BCh9S8RrEVg0q-118" value="FK1" style="shape=partialRectangle;connectable=0;fillColor=none;top=0;left=0;bottom=0;right=0;editable=1;overflow=hidden;shadow=1;glass=1;labelBackgroundColor=#ffffff;fontSize=12;strokeColor=#000000;" vertex="1" parent="mT0ywA8BCh9S8RrEVg0q-117">
          <mxGeometry width="60" height="30" as="geometry">
            <mxRectangle width="60" height="30" as="alternateBounds" />
          </mxGeometry>
        </mxCell>
        <mxCell id="mT0ywA8BCh9S8RrEVg0q-119" value="produto_categoria int NOT NULL" style="shape=partialRectangle;connectable=0;fillColor=none;top=0;left=0;bottom=0;right=0;align=left;spacingLeft=6;overflow=hidden;shadow=1;glass=1;labelBackgroundColor=#ffffff;fontSize=12;strokeColor=#000000;" vertex="1" parent="mT0ywA8BCh9S8RrEVg0q-117">
          <mxGeometry x="60" width="220" height="30" as="geometry">
            <mxRectangle width="220" height="30" as="alternateBounds" />
          </mxGeometry>
        </mxCell>
        <mxCell id="mT0ywA8BCh9S8RrEVg0q-120" value="" style="shape=tableRow;horizontal=0;startSize=0;swimlaneHead=0;swimlaneBody=0;fillColor=none;collapsible=0;dropTarget=0;points=[[0,0.5],[1,0.5]];portConstraint=eastwest;top=0;left=0;right=0;bottom=0;shadow=1;glass=1;labelBackgroundColor=#ffffff;fontSize=10;strokeColor=#000000;" vertex="1" parent="mT0ywA8BCh9S8RrEVg0q-113">
          <mxGeometry y="90" width="280" height="30" as="geometry" />
        </mxCell>
        <mxCell id="mT0ywA8BCh9S8RrEVg0q-121" value="FK2" style="shape=partialRectangle;connectable=0;fillColor=none;top=0;left=0;bottom=0;right=0;editable=1;overflow=hidden;shadow=1;glass=1;labelBackgroundColor=#ffffff;fontSize=12;strokeColor=#000000;" vertex="1" parent="mT0ywA8BCh9S8RrEVg0q-120">
          <mxGeometry width="60" height="30" as="geometry">
            <mxRectangle width="60" height="30" as="alternateBounds" />
          </mxGeometry>
        </mxCell>
        <mxCell id="mT0ywA8BCh9S8RrEVg0q-122" value="produto_marca int NOT NULL" style="shape=partialRectangle;connectable=0;fillColor=none;top=0;left=0;bottom=0;right=0;align=left;spacingLeft=6;overflow=hidden;shadow=1;glass=1;labelBackgroundColor=#ffffff;fontSize=12;strokeColor=#000000;" vertex="1" parent="mT0ywA8BCh9S8RrEVg0q-120">
          <mxGeometry x="60" width="220" height="30" as="geometry">
            <mxRectangle width="220" height="30" as="alternateBounds" />
          </mxGeometry>
        </mxCell>
        <mxCell id="mT0ywA8BCh9S8RrEVg0q-123" value="" style="shape=tableRow;horizontal=0;startSize=0;swimlaneHead=0;swimlaneBody=0;fillColor=none;collapsible=0;dropTarget=0;points=[[0,0.5],[1,0.5]];portConstraint=eastwest;top=0;left=0;right=0;bottom=0;shadow=1;glass=1;labelBackgroundColor=#ffffff;fontSize=10;strokeColor=#000000;" vertex="1" parent="mT0ywA8BCh9S8RrEVg0q-113">
          <mxGeometry y="120" width="280" height="30" as="geometry" />
        </mxCell>
        <mxCell id="mT0ywA8BCh9S8RrEVg0q-124" value="FK3" style="shape=partialRectangle;connectable=0;fillColor=none;top=0;left=0;bottom=0;right=0;editable=1;overflow=hidden;shadow=1;glass=1;labelBackgroundColor=#ffffff;fontSize=12;strokeColor=#000000;" vertex="1" parent="mT0ywA8BCh9S8RrEVg0q-123">
          <mxGeometry width="60" height="30" as="geometry">
            <mxRectangle width="60" height="30" as="alternateBounds" />
          </mxGeometry>
        </mxCell>
        <mxCell id="mT0ywA8BCh9S8RrEVg0q-125" value="produto_nome char(100) NOT NULL" style="shape=partialRectangle;connectable=0;fillColor=none;top=0;left=0;bottom=0;right=0;align=left;spacingLeft=6;overflow=hidden;shadow=1;glass=1;labelBackgroundColor=#ffffff;fontSize=12;strokeColor=#000000;" vertex="1" parent="mT0ywA8BCh9S8RrEVg0q-123">
          <mxGeometry x="60" width="220" height="30" as="geometry">
            <mxRectangle width="220" height="30" as="alternateBounds" />
          </mxGeometry>
        </mxCell>
        <mxCell id="mT0ywA8BCh9S8RrEVg0q-126" value="Marca" style="shape=table;startSize=30;container=1;collapsible=1;childLayout=tableLayout;fixedRows=1;rowLines=0;fontStyle=1;align=center;resizeLast=1;shadow=1;glass=1;labelBackgroundColor=#ffffff;fontSize=12;strokeColor=#000000;fillColor=default;" vertex="1" parent="1">
          <mxGeometry x="796" y="613" width="280" height="90" as="geometry" />
        </mxCell>
        <mxCell id="mT0ywA8BCh9S8RrEVg0q-127" value="" style="shape=tableRow;horizontal=0;startSize=0;swimlaneHead=0;swimlaneBody=0;fillColor=none;collapsible=0;dropTarget=0;points=[[0,0.5],[1,0.5]];portConstraint=eastwest;top=0;left=0;right=0;bottom=1;shadow=1;glass=1;labelBackgroundColor=#ffffff;fontSize=10;strokeColor=#000000;" vertex="1" parent="mT0ywA8BCh9S8RrEVg0q-126">
          <mxGeometry y="30" width="280" height="30" as="geometry" />
        </mxCell>
        <mxCell id="mT0ywA8BCh9S8RrEVg0q-128" value="PK" style="shape=partialRectangle;connectable=0;fillColor=none;top=0;left=0;bottom=0;right=0;fontStyle=1;overflow=hidden;shadow=1;glass=1;labelBackgroundColor=#ffffff;fontSize=10;strokeColor=#000000;" vertex="1" parent="mT0ywA8BCh9S8RrEVg0q-127">
          <mxGeometry width="60" height="30" as="geometry">
            <mxRectangle width="60" height="30" as="alternateBounds" />
          </mxGeometry>
        </mxCell>
        <mxCell id="mT0ywA8BCh9S8RrEVg0q-129" value="marca_id int NOT NULL" style="shape=partialRectangle;connectable=0;fillColor=none;top=0;left=0;bottom=0;right=0;align=left;spacingLeft=6;fontStyle=5;overflow=hidden;shadow=1;glass=1;labelBackgroundColor=#ffffff;fontSize=12;strokeColor=#000000;" vertex="1" parent="mT0ywA8BCh9S8RrEVg0q-127">
          <mxGeometry x="60" width="220" height="30" as="geometry">
            <mxRectangle width="220" height="30" as="alternateBounds" />
          </mxGeometry>
        </mxCell>
        <mxCell id="mT0ywA8BCh9S8RrEVg0q-130" value="" style="shape=tableRow;horizontal=0;startSize=0;swimlaneHead=0;swimlaneBody=0;fillColor=none;collapsible=0;dropTarget=0;points=[[0,0.5],[1,0.5]];portConstraint=eastwest;top=0;left=0;right=0;bottom=0;shadow=1;glass=1;labelBackgroundColor=#ffffff;fontSize=10;strokeColor=#000000;" vertex="1" parent="mT0ywA8BCh9S8RrEVg0q-126">
          <mxGeometry y="60" width="280" height="30" as="geometry" />
        </mxCell>
        <mxCell id="mT0ywA8BCh9S8RrEVg0q-131" value="" style="shape=partialRectangle;connectable=0;fillColor=none;top=0;left=0;bottom=0;right=0;editable=1;overflow=hidden;shadow=1;glass=1;labelBackgroundColor=#ffffff;fontSize=10;strokeColor=#000000;" vertex="1" parent="mT0ywA8BCh9S8RrEVg0q-130">
          <mxGeometry width="60" height="30" as="geometry">
            <mxRectangle width="60" height="30" as="alternateBounds" />
          </mxGeometry>
        </mxCell>
        <mxCell id="mT0ywA8BCh9S8RrEVg0q-132" value="marca char(50) NOT NULL" style="shape=partialRectangle;connectable=0;fillColor=none;top=0;left=0;bottom=0;right=0;align=left;spacingLeft=6;overflow=hidden;shadow=1;glass=1;labelBackgroundColor=#ffffff;fontSize=12;strokeColor=#000000;" vertex="1" parent="mT0ywA8BCh9S8RrEVg0q-130">
          <mxGeometry x="60" width="220" height="30" as="geometry">
            <mxRectangle width="220" height="30" as="alternateBounds" />
          </mxGeometry>
        </mxCell>
        <mxCell id="mT0ywA8BCh9S8RrEVg0q-133" value="" style="edgeStyle=elbowEdgeStyle;fontSize=12;html=1;endArrow=ERzeroToMany;startArrow=ERmandOne;rounded=0;exitX=1;exitY=0.5;exitDx=0;exitDy=0;" edge="1" parent="1" source="mT0ywA8BCh9S8RrEVg0q-127" target="mT0ywA8BCh9S8RrEVg0q-120">
          <mxGeometry width="100" height="100" relative="1" as="geometry">
            <mxPoint x="1129" y="918" as="sourcePoint" />
            <mxPoint x="1229" y="818" as="targetPoint" />
            <Array as="points">
              <mxPoint x="1109" y="588" />
            </Array>
          </mxGeometry>
        </mxCell>
        <mxCell id="mT0ywA8BCh9S8RrEVg0q-134" value="" style="edgeStyle=elbowEdgeStyle;fontSize=12;html=1;endArrow=ERzeroToMany;startArrow=ERmandOne;rounded=0;entryX=1;entryY=0.5;entryDx=0;entryDy=0;exitX=0;exitY=0.5;exitDx=0;exitDy=0;" edge="1" parent="1" source="mT0ywA8BCh9S8RrEVg0q-101" target="mT0ywA8BCh9S8RrEVg0q-117">
          <mxGeometry width="100" height="100" relative="1" as="geometry">
            <mxPoint x="1079" y="788" as="sourcePoint" />
            <mxPoint x="1179" y="688" as="targetPoint" />
          </mxGeometry>
        </mxCell>
        <mxCell id="mT0ywA8BCh9S8RrEVg0q-135" value="Estoque" style="shape=table;startSize=30;container=1;collapsible=1;childLayout=tableLayout;fixedRows=1;rowLines=0;fontStyle=1;align=center;resizeLast=1;shadow=1;glass=1;labelBackgroundColor=#ffffff;fontSize=12;strokeColor=#000000;fillColor=default;" vertex="1" parent="1">
          <mxGeometry x="799" y="163" width="283" height="210" as="geometry" />
        </mxCell>
        <mxCell id="mT0ywA8BCh9S8RrEVg0q-155" value="" style="shape=tableRow;horizontal=0;startSize=0;swimlaneHead=0;swimlaneBody=0;fillColor=none;collapsible=0;dropTarget=0;points=[[0,0.5],[1,0.5]];portConstraint=eastwest;top=0;left=0;right=0;bottom=1;shadow=1;glass=1;labelBackgroundColor=#ffffff;fontSize=10;strokeColor=#000000;" vertex="1" parent="mT0ywA8BCh9S8RrEVg0q-135">
          <mxGeometry y="30" width="283" height="30" as="geometry" />
        </mxCell>
        <mxCell id="mT0ywA8BCh9S8RrEVg0q-156" value="PK" style="shape=partialRectangle;connectable=0;fillColor=none;top=0;left=0;bottom=0;right=0;fontStyle=1;overflow=hidden;shadow=1;glass=1;labelBackgroundColor=#ffffff;fontSize=12;strokeColor=#000000;" vertex="1" parent="mT0ywA8BCh9S8RrEVg0q-155">
          <mxGeometry width="60" height="30" as="geometry">
            <mxRectangle width="60" height="30" as="alternateBounds" />
          </mxGeometry>
        </mxCell>
        <mxCell id="mT0ywA8BCh9S8RrEVg0q-157" value="estoque_id int NOT NULL" style="shape=partialRectangle;connectable=0;fillColor=none;top=0;left=0;bottom=0;right=0;align=left;spacingLeft=6;fontStyle=5;overflow=hidden;shadow=1;glass=1;labelBackgroundColor=#ffffff;fontSize=12;strokeColor=#000000;" vertex="1" parent="mT0ywA8BCh9S8RrEVg0q-155">
          <mxGeometry x="60" width="223" height="30" as="geometry">
            <mxRectangle width="223" height="30" as="alternateBounds" />
          </mxGeometry>
        </mxCell>
        <mxCell id="mT0ywA8BCh9S8RrEVg0q-158" value="" style="shape=tableRow;horizontal=0;startSize=0;swimlaneHead=0;swimlaneBody=0;fillColor=none;collapsible=0;dropTarget=0;points=[[0,0.5],[1,0.5]];portConstraint=eastwest;top=0;left=0;right=0;bottom=0;shadow=1;glass=1;labelBackgroundColor=#ffffff;fontSize=10;strokeColor=#000000;" vertex="1" parent="mT0ywA8BCh9S8RrEVg0q-135">
          <mxGeometry y="60" width="283" height="30" as="geometry" />
        </mxCell>
        <mxCell id="mT0ywA8BCh9S8RrEVg0q-159" value="FK1" style="shape=partialRectangle;connectable=0;fillColor=none;top=0;left=0;bottom=0;right=0;fontStyle=0;overflow=hidden;shadow=1;glass=1;labelBackgroundColor=#ffffff;fontSize=12;strokeColor=#000000;" vertex="1" parent="mT0ywA8BCh9S8RrEVg0q-158">
          <mxGeometry width="60" height="30" as="geometry">
            <mxRectangle width="60" height="30" as="alternateBounds" />
          </mxGeometry>
        </mxCell>
        <mxCell id="mT0ywA8BCh9S8RrEVg0q-160" value="estoque_loja int NOT NULL" style="shape=partialRectangle;connectable=0;fillColor=none;top=0;left=0;bottom=0;right=0;align=left;spacingLeft=6;fontStyle=0;overflow=hidden;shadow=1;glass=1;labelBackgroundColor=#ffffff;fontSize=12;strokeColor=#000000;" vertex="1" parent="mT0ywA8BCh9S8RrEVg0q-158">
          <mxGeometry x="60" width="223" height="30" as="geometry">
            <mxRectangle width="223" height="30" as="alternateBounds" />
          </mxGeometry>
        </mxCell>
        <mxCell id="mT0ywA8BCh9S8RrEVg0q-161" value="" style="shape=tableRow;horizontal=0;startSize=0;swimlaneHead=0;swimlaneBody=0;fillColor=none;collapsible=0;dropTarget=0;points=[[0,0.5],[1,0.5]];portConstraint=eastwest;top=0;left=0;right=0;bottom=0;shadow=1;glass=1;labelBackgroundColor=#ffffff;fontSize=10;strokeColor=#000000;" vertex="1" parent="mT0ywA8BCh9S8RrEVg0q-135">
          <mxGeometry y="90" width="283" height="30" as="geometry" />
        </mxCell>
        <mxCell id="mT0ywA8BCh9S8RrEVg0q-162" value="FK2" style="shape=partialRectangle;connectable=0;fillColor=none;top=0;left=0;bottom=0;right=0;fontStyle=0;overflow=hidden;shadow=1;glass=1;labelBackgroundColor=#ffffff;fontSize=12;strokeColor=#000000;" vertex="1" parent="mT0ywA8BCh9S8RrEVg0q-161">
          <mxGeometry width="60" height="30" as="geometry">
            <mxRectangle width="60" height="30" as="alternateBounds" />
          </mxGeometry>
        </mxCell>
        <mxCell id="mT0ywA8BCh9S8RrEVg0q-163" value="estoque_produto int NOT NULL" style="shape=partialRectangle;connectable=0;fillColor=none;top=0;left=0;bottom=0;right=0;align=left;spacingLeft=6;fontStyle=0;overflow=hidden;shadow=1;glass=1;labelBackgroundColor=#ffffff;fontSize=12;strokeColor=#000000;" vertex="1" parent="mT0ywA8BCh9S8RrEVg0q-161">
          <mxGeometry x="60" width="223" height="30" as="geometry">
            <mxRectangle width="223" height="30" as="alternateBounds" />
          </mxGeometry>
        </mxCell>
        <mxCell id="mT0ywA8BCh9S8RrEVg0q-142" value="" style="shape=tableRow;horizontal=0;startSize=0;swimlaneHead=0;swimlaneBody=0;fillColor=none;collapsible=0;dropTarget=0;points=[[0,0.5],[1,0.5]];portConstraint=eastwest;top=0;left=0;right=0;bottom=0;shadow=1;glass=1;labelBackgroundColor=#ffffff;fontSize=10;strokeColor=#000000;" vertex="1" parent="mT0ywA8BCh9S8RrEVg0q-135">
          <mxGeometry y="120" width="283" height="30" as="geometry" />
        </mxCell>
        <mxCell id="mT0ywA8BCh9S8RrEVg0q-143" value="" style="shape=partialRectangle;connectable=0;fillColor=none;top=0;left=0;bottom=0;right=0;editable=1;overflow=hidden;shadow=1;glass=1;labelBackgroundColor=#ffffff;fontSize=12;strokeColor=#000000;" vertex="1" parent="mT0ywA8BCh9S8RrEVg0q-142">
          <mxGeometry width="60" height="30" as="geometry">
            <mxRectangle width="60" height="30" as="alternateBounds" />
          </mxGeometry>
        </mxCell>
        <mxCell id="mT0ywA8BCh9S8RrEVg0q-144" value="preço float NOT NULL" style="shape=partialRectangle;connectable=0;fillColor=none;top=0;left=0;bottom=0;right=0;align=left;spacingLeft=6;overflow=hidden;shadow=1;glass=1;labelBackgroundColor=#ffffff;fontSize=12;strokeColor=#000000;" vertex="1" parent="mT0ywA8BCh9S8RrEVg0q-142">
          <mxGeometry x="60" width="223" height="30" as="geometry">
            <mxRectangle width="223" height="30" as="alternateBounds" />
          </mxGeometry>
        </mxCell>
        <mxCell id="mT0ywA8BCh9S8RrEVg0q-145" value="" style="shape=tableRow;horizontal=0;startSize=0;swimlaneHead=0;swimlaneBody=0;fillColor=none;collapsible=0;dropTarget=0;points=[[0,0.5],[1,0.5]];portConstraint=eastwest;top=0;left=0;right=0;bottom=0;shadow=1;glass=1;labelBackgroundColor=#ffffff;fontSize=10;strokeColor=#000000;" vertex="1" parent="mT0ywA8BCh9S8RrEVg0q-135">
          <mxGeometry y="150" width="283" height="30" as="geometry" />
        </mxCell>
        <mxCell id="mT0ywA8BCh9S8RrEVg0q-146" value="" style="shape=partialRectangle;connectable=0;fillColor=none;top=0;left=0;bottom=0;right=0;editable=1;overflow=hidden;shadow=1;glass=1;labelBackgroundColor=#ffffff;fontSize=12;strokeColor=#000000;" vertex="1" parent="mT0ywA8BCh9S8RrEVg0q-145">
          <mxGeometry width="60" height="30" as="geometry">
            <mxRectangle width="60" height="30" as="alternateBounds" />
          </mxGeometry>
        </mxCell>
        <mxCell id="mT0ywA8BCh9S8RrEVg0q-147" value="quantidade int NOT NULL" style="shape=partialRectangle;connectable=0;fillColor=none;top=0;left=0;bottom=0;right=0;align=left;spacingLeft=6;overflow=hidden;shadow=1;glass=1;labelBackgroundColor=#ffffff;fontSize=12;strokeColor=#000000;" vertex="1" parent="mT0ywA8BCh9S8RrEVg0q-145">
          <mxGeometry x="60" width="223" height="30" as="geometry">
            <mxRectangle width="223" height="30" as="alternateBounds" />
          </mxGeometry>
        </mxCell>
        <mxCell id="mT0ywA8BCh9S8RrEVg0q-178" value="" style="shape=tableRow;horizontal=0;startSize=0;swimlaneHead=0;swimlaneBody=0;fillColor=none;collapsible=0;dropTarget=0;points=[[0,0.5],[1,0.5]];portConstraint=eastwest;top=0;left=0;right=0;bottom=0;shadow=1;glass=1;labelBackgroundColor=#ffffff;fontSize=10;strokeColor=#000000;" vertex="1" parent="mT0ywA8BCh9S8RrEVg0q-135">
          <mxGeometry y="180" width="283" height="30" as="geometry" />
        </mxCell>
        <mxCell id="mT0ywA8BCh9S8RrEVg0q-179" value="" style="shape=partialRectangle;connectable=0;fillColor=none;top=0;left=0;bottom=0;right=0;editable=1;overflow=hidden;shadow=1;glass=1;labelBackgroundColor=#ffffff;fontSize=12;strokeColor=#000000;" vertex="1" parent="mT0ywA8BCh9S8RrEVg0q-178">
          <mxGeometry width="60" height="30" as="geometry">
            <mxRectangle width="60" height="30" as="alternateBounds" />
          </mxGeometry>
        </mxCell>
        <mxCell id="mT0ywA8BCh9S8RrEVg0q-180" value="desconto decimal(5,4) DEFAULT (0.00)  " style="shape=partialRectangle;connectable=0;fillColor=none;top=0;left=0;bottom=0;right=0;align=left;spacingLeft=6;overflow=hidden;shadow=1;glass=1;labelBackgroundColor=#ffffff;fontSize=12;strokeColor=#000000;" vertex="1" parent="mT0ywA8BCh9S8RrEVg0q-178">
          <mxGeometry x="60" width="223" height="30" as="geometry">
            <mxRectangle width="223" height="30" as="alternateBounds" />
          </mxGeometry>
        </mxCell>
        <mxCell id="mT0ywA8BCh9S8RrEVg0q-148" value="" style="edgeStyle=orthogonalEdgeStyle;fontSize=12;html=1;endArrow=ERzeroToMany;startArrow=ERmandOne;rounded=0;exitX=0;exitY=0.5;exitDx=0;exitDy=0;entryX=1;entryY=0.5;entryDx=0;entryDy=0;" edge="1" parent="1" source="mT0ywA8BCh9S8RrEVg0q-88" target="mT0ywA8BCh9S8RrEVg0q-158">
          <mxGeometry width="100" height="100" relative="1" as="geometry">
            <mxPoint x="949" y="608" as="sourcePoint" />
            <mxPoint x="1079" y="467.9999999999999" as="targetPoint" />
            <Array as="points">
              <mxPoint x="1290" y="510" />
              <mxPoint x="1290" y="238" />
            </Array>
          </mxGeometry>
        </mxCell>
        <mxCell id="mT0ywA8BCh9S8RrEVg0q-150" style="edgeStyle=orthogonalEdgeStyle;rounded=0;orthogonalLoop=1;jettySize=auto;html=1;entryX=1;entryY=0.5;entryDx=0;entryDy=0;fontSize=10;fillColor=#fff2cc;strokeColor=#d6b656;exitX=1;exitY=0.356;exitDx=0;exitDy=0;exitPerimeter=0;" edge="1" parent="1" source="mT0ywA8BCh9S8RrEVg0q-149" target="mT0ywA8BCh9S8RrEVg0q-94">
          <mxGeometry relative="1" as="geometry" />
        </mxCell>
        <mxCell id="mT0ywA8BCh9S8RrEVg0q-149" value="&lt;p&gt;&lt;b style=&quot;font-size: 10px&quot;&gt;Geolocalização:&lt;/b&gt;&lt;/p&gt;&lt;p&gt;&lt;font style=&quot;font-size: 10px ; line-height: 1&quot;&gt;Para possivelmente ser utilizada em cálculos de distância e rotas.&lt;br&gt;Ex.:41°24&#39;12.2&quot;N 2°10&#39;26.5&quot;E&lt;/font&gt;&lt;/p&gt;" style="text;html=1;strokeColor=#d6b656;fillColor=#fff2cc;spacing=5;spacingTop=-20;whiteSpace=wrap;overflow=hidden;rounded=0;glass=1;shadow=1;" vertex="1" parent="1">
          <mxGeometry x="1449" y="598" width="150" height="90" as="geometry" />
        </mxCell>
        <mxCell id="mT0ywA8BCh9S8RrEVg0q-152" style="edgeStyle=orthogonalEdgeStyle;rounded=0;orthogonalLoop=1;jettySize=auto;html=1;entryX=0;entryY=0.5;entryDx=0;entryDy=0;fontSize=10;fillColor=#fff2cc;strokeColor=#d6b656;" edge="1" parent="1" source="mT0ywA8BCh9S8RrEVg0q-151" target="mT0ywA8BCh9S8RrEVg0q-104">
          <mxGeometry relative="1" as="geometry" />
        </mxCell>
        <mxCell id="mT0ywA8BCh9S8RrEVg0q-151" value="&lt;p&gt;&lt;b style=&quot;font-size: 10px&quot;&gt;Categoria:&lt;/b&gt;&lt;/p&gt;&lt;p&gt;&lt;font style=&quot;font-size: 10px ; line-height: 1&quot;&gt;Categoria dos produtos. Ex.: higiene, limpeza, produtos alimentícios, etc.&lt;/font&gt;&lt;/p&gt;" style="text;html=1;strokeColor=#d6b656;fillColor=#fff2cc;spacing=5;spacingTop=-20;whiteSpace=wrap;overflow=hidden;rounded=0;glass=1;shadow=1;" vertex="1" parent="1">
          <mxGeometry x="1149" y="798" width="150" height="80" as="geometry" />
        </mxCell>
        <mxCell id="mT0ywA8BCh9S8RrEVg0q-154" style="edgeStyle=orthogonalEdgeStyle;rounded=0;orthogonalLoop=1;jettySize=auto;html=1;entryX=1;entryY=0.5;entryDx=0;entryDy=0;fontSize=10;fillColor=#fff2cc;strokeColor=#d6b656;exitX=1;exitY=0.5;exitDx=0;exitDy=0;" edge="1" parent="1" source="mT0ywA8BCh9S8RrEVg0q-153" target="mT0ywA8BCh9S8RrEVg0q-130">
          <mxGeometry relative="1" as="geometry" />
        </mxCell>
        <mxCell id="mT0ywA8BCh9S8RrEVg0q-153" value="&lt;p&gt;&lt;b style=&quot;font-size: 10px&quot;&gt;Marca:&lt;/b&gt;&lt;/p&gt;&lt;p&gt;&lt;font style=&quot;font-size: 10px ; line-height: 1&quot;&gt;Marca ou nome do fabricante do produto. Ex.: OMO, Nestlé, Fortaleza, etc.&lt;/font&gt;&lt;/p&gt;" style="text;html=1;strokeColor=#d6b656;fillColor=#fff2cc;spacing=5;spacingTop=-20;whiteSpace=wrap;overflow=hidden;rounded=0;glass=1;shadow=1;" vertex="1" parent="1">
          <mxGeometry x="932" y="733" width="150" height="80" as="geometry" />
        </mxCell>
        <mxCell id="mT0ywA8BCh9S8RrEVg0q-164" value="" style="edgeStyle=orthogonalEdgeStyle;fontSize=12;html=1;endArrow=ERoneToMany;startArrow=ERmandOne;rounded=0;exitX=1;exitY=0.5;exitDx=0;exitDy=0;" edge="1" parent="1" source="mT0ywA8BCh9S8RrEVg0q-114" target="mT0ywA8BCh9S8RrEVg0q-161">
          <mxGeometry width="100" height="100" relative="1" as="geometry">
            <mxPoint x="1029" y="608" as="sourcePoint" />
            <mxPoint x="1129" y="508" as="targetPoint" />
            <Array as="points">
              <mxPoint x="1109" y="463" />
              <mxPoint x="1109" y="268" />
            </Array>
          </mxGeometry>
        </mxCell>
        <mxCell id="mT0ywA8BCh9S8RrEVg0q-165" value="Venda" style="shape=table;startSize=30;container=1;collapsible=1;childLayout=tableLayout;fixedRows=1;rowLines=0;fontStyle=1;align=center;resizeLast=1;shadow=1;glass=1;labelBackgroundColor=#ffffff;fontSize=12;strokeColor=#000000;fillColor=default;" vertex="1" parent="1">
          <mxGeometry x="449" y="618" width="280" height="150" as="geometry" />
        </mxCell>
        <mxCell id="mT0ywA8BCh9S8RrEVg0q-166" value="" style="shape=tableRow;horizontal=0;startSize=0;swimlaneHead=0;swimlaneBody=0;fillColor=none;collapsible=0;dropTarget=0;points=[[0,0.5],[1,0.5]];portConstraint=eastwest;top=0;left=0;right=0;bottom=1;shadow=1;glass=1;labelBackgroundColor=#ffffff;fontSize=10;strokeColor=#000000;" vertex="1" parent="mT0ywA8BCh9S8RrEVg0q-165">
          <mxGeometry y="30" width="280" height="30" as="geometry" />
        </mxCell>
        <mxCell id="mT0ywA8BCh9S8RrEVg0q-167" value="PK" style="shape=partialRectangle;connectable=0;fillColor=none;top=0;left=0;bottom=0;right=0;fontStyle=1;overflow=hidden;shadow=1;glass=1;labelBackgroundColor=#ffffff;fontSize=12;strokeColor=#000000;" vertex="1" parent="mT0ywA8BCh9S8RrEVg0q-166">
          <mxGeometry width="50" height="30" as="geometry">
            <mxRectangle width="50" height="30" as="alternateBounds" />
          </mxGeometry>
        </mxCell>
        <mxCell id="mT0ywA8BCh9S8RrEVg0q-168" value="venda_id int NOT NULL" style="shape=partialRectangle;connectable=0;fillColor=none;top=0;left=0;bottom=0;right=0;align=left;spacingLeft=6;fontStyle=5;overflow=hidden;shadow=1;glass=1;labelBackgroundColor=#ffffff;fontSize=12;strokeColor=#000000;" vertex="1" parent="mT0ywA8BCh9S8RrEVg0q-166">
          <mxGeometry x="50" width="230" height="30" as="geometry">
            <mxRectangle width="230" height="30" as="alternateBounds" />
          </mxGeometry>
        </mxCell>
        <mxCell id="mT0ywA8BCh9S8RrEVg0q-169" value="" style="shape=tableRow;horizontal=0;startSize=0;swimlaneHead=0;swimlaneBody=0;fillColor=none;collapsible=0;dropTarget=0;points=[[0,0.5],[1,0.5]];portConstraint=eastwest;top=0;left=0;right=0;bottom=0;shadow=1;glass=1;labelBackgroundColor=#ffffff;fontSize=10;strokeColor=#000000;" vertex="1" parent="mT0ywA8BCh9S8RrEVg0q-165">
          <mxGeometry y="60" width="280" height="30" as="geometry" />
        </mxCell>
        <mxCell id="mT0ywA8BCh9S8RrEVg0q-170" value="" style="shape=partialRectangle;connectable=0;fillColor=none;top=0;left=0;bottom=0;right=0;editable=1;overflow=hidden;shadow=1;glass=1;labelBackgroundColor=#ffffff;fontSize=12;strokeColor=#000000;" vertex="1" parent="mT0ywA8BCh9S8RrEVg0q-169">
          <mxGeometry width="50" height="30" as="geometry">
            <mxRectangle width="50" height="30" as="alternateBounds" />
          </mxGeometry>
        </mxCell>
        <mxCell id="mT0ywA8BCh9S8RrEVg0q-171" value="venda_estoque int NOT NULL" style="shape=partialRectangle;connectable=0;fillColor=none;top=0;left=0;bottom=0;right=0;align=left;spacingLeft=6;overflow=hidden;shadow=1;glass=1;labelBackgroundColor=#ffffff;fontSize=12;strokeColor=#000000;" vertex="1" parent="mT0ywA8BCh9S8RrEVg0q-169">
          <mxGeometry x="50" width="230" height="30" as="geometry">
            <mxRectangle width="230" height="30" as="alternateBounds" />
          </mxGeometry>
        </mxCell>
        <mxCell id="mT0ywA8BCh9S8RrEVg0q-172" value="" style="shape=tableRow;horizontal=0;startSize=0;swimlaneHead=0;swimlaneBody=0;fillColor=none;collapsible=0;dropTarget=0;points=[[0,0.5],[1,0.5]];portConstraint=eastwest;top=0;left=0;right=0;bottom=0;shadow=1;glass=1;labelBackgroundColor=#ffffff;fontSize=10;strokeColor=#000000;" vertex="1" parent="mT0ywA8BCh9S8RrEVg0q-165">
          <mxGeometry y="90" width="280" height="30" as="geometry" />
        </mxCell>
        <mxCell id="mT0ywA8BCh9S8RrEVg0q-173" value="" style="shape=partialRectangle;connectable=0;fillColor=none;top=0;left=0;bottom=0;right=0;editable=1;overflow=hidden;shadow=1;glass=1;labelBackgroundColor=#ffffff;fontSize=12;strokeColor=#000000;" vertex="1" parent="mT0ywA8BCh9S8RrEVg0q-172">
          <mxGeometry width="50" height="30" as="geometry">
            <mxRectangle width="50" height="30" as="alternateBounds" />
          </mxGeometry>
        </mxCell>
        <mxCell id="mT0ywA8BCh9S8RrEVg0q-174" value="venda_cliente int NOT NULL" style="shape=partialRectangle;connectable=0;fillColor=none;top=0;left=0;bottom=0;right=0;align=left;spacingLeft=6;overflow=hidden;shadow=1;glass=1;labelBackgroundColor=#ffffff;fontSize=12;strokeColor=#000000;" vertex="1" parent="mT0ywA8BCh9S8RrEVg0q-172">
          <mxGeometry x="50" width="230" height="30" as="geometry">
            <mxRectangle width="230" height="30" as="alternateBounds" />
          </mxGeometry>
        </mxCell>
        <mxCell id="mT0ywA8BCh9S8RrEVg0q-175" value="" style="shape=tableRow;horizontal=0;startSize=0;swimlaneHead=0;swimlaneBody=0;fillColor=none;collapsible=0;dropTarget=0;points=[[0,0.5],[1,0.5]];portConstraint=eastwest;top=0;left=0;right=0;bottom=0;shadow=1;glass=1;labelBackgroundColor=#ffffff;fontSize=10;strokeColor=#000000;" vertex="1" parent="mT0ywA8BCh9S8RrEVg0q-165">
          <mxGeometry y="120" width="280" height="30" as="geometry" />
        </mxCell>
        <mxCell id="mT0ywA8BCh9S8RrEVg0q-176" value="" style="shape=partialRectangle;connectable=0;fillColor=none;top=0;left=0;bottom=0;right=0;editable=1;overflow=hidden;shadow=1;glass=1;labelBackgroundColor=#ffffff;fontSize=12;strokeColor=#000000;" vertex="1" parent="mT0ywA8BCh9S8RrEVg0q-175">
          <mxGeometry width="50" height="30" as="geometry">
            <mxRectangle width="50" height="30" as="alternateBounds" />
          </mxGeometry>
        </mxCell>
        <mxCell id="mT0ywA8BCh9S8RrEVg0q-177" value="venda_forma_pagamento int NOT NULL" style="shape=partialRectangle;connectable=0;fillColor=none;top=0;left=0;bottom=0;right=0;align=left;spacingLeft=6;overflow=hidden;shadow=1;glass=1;labelBackgroundColor=#ffffff;fontSize=12;strokeColor=#000000;" vertex="1" parent="mT0ywA8BCh9S8RrEVg0q-175">
          <mxGeometry x="50" width="230" height="30" as="geometry">
            <mxRectangle width="230" height="30" as="alternateBounds" />
          </mxGeometry>
        </mxCell>
        <mxCell id="mT0ywA8BCh9S8RrEVg0q-182" style="edgeStyle=orthogonalEdgeStyle;rounded=0;orthogonalLoop=1;jettySize=auto;html=1;fontSize=10;fillColor=#fff2cc;strokeColor=#d6b656;" edge="1" parent="1" source="mT0ywA8BCh9S8RrEVg0q-181" target="mT0ywA8BCh9S8RrEVg0q-178">
          <mxGeometry relative="1" as="geometry" />
        </mxCell>
        <mxCell id="mT0ywA8BCh9S8RrEVg0q-181" value="&lt;p&gt;&lt;b style=&quot;font-size: 10px&quot;&gt;Desconto:&lt;/b&gt;&lt;/p&gt;&lt;p&gt;&lt;font style=&quot;font-size: 10px ; line-height: 1&quot;&gt;Valor do desconto para o produto em estoque. Por padrão tem o valor 0.00 (0%). Produtos com o valor 1.00 tem custo zero, ou seja, 100% de desconto.&lt;/font&gt;&lt;/p&gt;" style="text;html=1;strokeColor=#d6b656;fillColor=#fff2cc;spacing=5;spacingTop=-20;whiteSpace=wrap;overflow=hidden;rounded=0;glass=1;shadow=1;" vertex="1" parent="1">
          <mxGeometry x="1130.5" y="288" width="127" height="140" as="geometry" />
        </mxCell>
        <mxCell id="mT0ywA8BCh9S8RrEVg0q-183" value="Cesta" style="shape=table;startSize=30;container=1;collapsible=1;childLayout=tableLayout;fixedRows=1;rowLines=0;fontStyle=1;align=center;resizeLast=1;shadow=1;glass=1;labelBackgroundColor=#ffffff;fontSize=12;strokeColor=#000000;fillColor=default;" vertex="1" parent="1">
          <mxGeometry x="449" y="468" width="280" height="120" as="geometry" />
        </mxCell>
        <mxCell id="mT0ywA8BCh9S8RrEVg0q-184" value="" style="shape=tableRow;horizontal=0;startSize=0;swimlaneHead=0;swimlaneBody=0;fillColor=none;collapsible=0;dropTarget=0;points=[[0,0.5],[1,0.5]];portConstraint=eastwest;top=0;left=0;right=0;bottom=1;shadow=1;glass=1;labelBackgroundColor=#ffffff;fontSize=10;strokeColor=#000000;" vertex="1" parent="mT0ywA8BCh9S8RrEVg0q-183">
          <mxGeometry y="30" width="280" height="30" as="geometry" />
        </mxCell>
        <mxCell id="mT0ywA8BCh9S8RrEVg0q-185" value="PK" style="shape=partialRectangle;connectable=0;fillColor=none;top=0;left=0;bottom=0;right=0;fontStyle=1;overflow=hidden;shadow=1;glass=1;labelBackgroundColor=#ffffff;fontSize=12;strokeColor=#000000;" vertex="1" parent="mT0ywA8BCh9S8RrEVg0q-184">
          <mxGeometry width="60" height="30" as="geometry">
            <mxRectangle width="60" height="30" as="alternateBounds" />
          </mxGeometry>
        </mxCell>
        <mxCell id="mT0ywA8BCh9S8RrEVg0q-186" value="cesta_id" style="shape=partialRectangle;connectable=0;fillColor=none;top=0;left=0;bottom=0;right=0;align=left;spacingLeft=6;fontStyle=5;overflow=hidden;shadow=1;glass=1;labelBackgroundColor=#ffffff;fontSize=12;strokeColor=#000000;" vertex="1" parent="mT0ywA8BCh9S8RrEVg0q-184">
          <mxGeometry x="60" width="220" height="30" as="geometry">
            <mxRectangle width="220" height="30" as="alternateBounds" />
          </mxGeometry>
        </mxCell>
        <mxCell id="mT0ywA8BCh9S8RrEVg0q-187" value="" style="shape=tableRow;horizontal=0;startSize=0;swimlaneHead=0;swimlaneBody=0;fillColor=none;collapsible=0;dropTarget=0;points=[[0,0.5],[1,0.5]];portConstraint=eastwest;top=0;left=0;right=0;bottom=0;shadow=1;glass=1;labelBackgroundColor=#ffffff;fontSize=10;strokeColor=#000000;" vertex="1" parent="mT0ywA8BCh9S8RrEVg0q-183">
          <mxGeometry y="60" width="280" height="30" as="geometry" />
        </mxCell>
        <mxCell id="mT0ywA8BCh9S8RrEVg0q-188" value="FK1" style="shape=partialRectangle;connectable=0;fillColor=none;top=0;left=0;bottom=0;right=0;editable=1;overflow=hidden;shadow=1;glass=1;labelBackgroundColor=#ffffff;fontSize=12;strokeColor=#000000;" vertex="1" parent="mT0ywA8BCh9S8RrEVg0q-187">
          <mxGeometry width="60" height="30" as="geometry">
            <mxRectangle width="60" height="30" as="alternateBounds" />
          </mxGeometry>
        </mxCell>
        <mxCell id="mT0ywA8BCh9S8RrEVg0q-189" value="cesta_cliente int NOT NULL" style="shape=partialRectangle;connectable=0;fillColor=none;top=0;left=0;bottom=0;right=0;align=left;spacingLeft=6;overflow=hidden;shadow=1;glass=1;labelBackgroundColor=#ffffff;fontSize=12;strokeColor=#000000;" vertex="1" parent="mT0ywA8BCh9S8RrEVg0q-187">
          <mxGeometry x="60" width="220" height="30" as="geometry">
            <mxRectangle width="220" height="30" as="alternateBounds" />
          </mxGeometry>
        </mxCell>
        <mxCell id="mT0ywA8BCh9S8RrEVg0q-190" value="" style="shape=tableRow;horizontal=0;startSize=0;swimlaneHead=0;swimlaneBody=0;fillColor=none;collapsible=0;dropTarget=0;points=[[0,0.5],[1,0.5]];portConstraint=eastwest;top=0;left=0;right=0;bottom=0;shadow=1;glass=1;labelBackgroundColor=#ffffff;fontSize=10;strokeColor=#000000;" vertex="1" parent="mT0ywA8BCh9S8RrEVg0q-183">
          <mxGeometry y="90" width="280" height="30" as="geometry" />
        </mxCell>
        <mxCell id="mT0ywA8BCh9S8RrEVg0q-191" value="FK2" style="shape=partialRectangle;connectable=0;fillColor=none;top=0;left=0;bottom=0;right=0;editable=1;overflow=hidden;shadow=1;glass=1;labelBackgroundColor=#ffffff;fontSize=12;strokeColor=#000000;" vertex="1" parent="mT0ywA8BCh9S8RrEVg0q-190">
          <mxGeometry width="60" height="30" as="geometry">
            <mxRectangle width="60" height="30" as="alternateBounds" />
          </mxGeometry>
        </mxCell>
        <mxCell id="mT0ywA8BCh9S8RrEVg0q-192" value="cesta_venda int NOT NULL" style="shape=partialRectangle;connectable=0;fillColor=none;top=0;left=0;bottom=0;right=0;align=left;spacingLeft=6;overflow=hidden;shadow=1;glass=1;labelBackgroundColor=#ffffff;fontSize=12;strokeColor=#000000;" vertex="1" parent="mT0ywA8BCh9S8RrEVg0q-190">
          <mxGeometry x="60" width="220" height="30" as="geometry">
            <mxRectangle width="220" height="30" as="alternateBounds" />
          </mxGeometry>
        </mxCell>
        <mxCell id="mT0ywA8BCh9S8RrEVg0q-209" value="Item" style="shape=table;startSize=30;container=1;collapsible=1;childLayout=tableLayout;fixedRows=1;rowLines=0;fontStyle=1;align=center;resizeLast=1;shadow=1;glass=1;labelBackgroundColor=#ffffff;fontSize=10;strokeColor=#000000;fillColor=default;" vertex="1" parent="1">
          <mxGeometry x="449" y="283" width="280" height="120" as="geometry" />
        </mxCell>
        <mxCell id="mT0ywA8BCh9S8RrEVg0q-210" value="" style="shape=tableRow;horizontal=0;startSize=0;swimlaneHead=0;swimlaneBody=0;fillColor=none;collapsible=0;dropTarget=0;points=[[0,0.5],[1,0.5]];portConstraint=eastwest;top=0;left=0;right=0;bottom=0;shadow=1;glass=1;labelBackgroundColor=#ffffff;fontSize=10;strokeColor=#000000;" vertex="1" parent="mT0ywA8BCh9S8RrEVg0q-209">
          <mxGeometry y="30" width="280" height="30" as="geometry" />
        </mxCell>
        <mxCell id="mT0ywA8BCh9S8RrEVg0q-211" value="PK,FK1" style="shape=partialRectangle;connectable=0;fillColor=none;top=0;left=0;bottom=0;right=0;fontStyle=1;overflow=hidden;shadow=1;glass=1;labelBackgroundColor=#ffffff;fontSize=10;strokeColor=#000000;" vertex="1" parent="mT0ywA8BCh9S8RrEVg0q-210">
          <mxGeometry width="60" height="30" as="geometry">
            <mxRectangle width="60" height="30" as="alternateBounds" />
          </mxGeometry>
        </mxCell>
        <mxCell id="mT0ywA8BCh9S8RrEVg0q-212" value="item_estoque int NOT NULL" style="shape=partialRectangle;connectable=0;fillColor=none;top=0;left=0;bottom=0;right=0;align=left;spacingLeft=6;fontStyle=5;overflow=hidden;shadow=1;glass=1;labelBackgroundColor=#ffffff;fontSize=10;strokeColor=#000000;" vertex="1" parent="mT0ywA8BCh9S8RrEVg0q-210">
          <mxGeometry x="60" width="220" height="30" as="geometry">
            <mxRectangle width="220" height="30" as="alternateBounds" />
          </mxGeometry>
        </mxCell>
        <mxCell id="mT0ywA8BCh9S8RrEVg0q-213" value="" style="shape=tableRow;horizontal=0;startSize=0;swimlaneHead=0;swimlaneBody=0;fillColor=none;collapsible=0;dropTarget=0;points=[[0,0.5],[1,0.5]];portConstraint=eastwest;top=0;left=0;right=0;bottom=1;shadow=1;glass=1;labelBackgroundColor=#ffffff;fontSize=10;strokeColor=#000000;" vertex="1" parent="mT0ywA8BCh9S8RrEVg0q-209">
          <mxGeometry y="60" width="280" height="30" as="geometry" />
        </mxCell>
        <mxCell id="mT0ywA8BCh9S8RrEVg0q-214" value="PK,FK2" style="shape=partialRectangle;connectable=0;fillColor=none;top=0;left=0;bottom=0;right=0;fontStyle=1;overflow=hidden;shadow=1;glass=1;labelBackgroundColor=#ffffff;fontSize=10;strokeColor=#000000;" vertex="1" parent="mT0ywA8BCh9S8RrEVg0q-213">
          <mxGeometry width="60" height="30" as="geometry">
            <mxRectangle width="60" height="30" as="alternateBounds" />
          </mxGeometry>
        </mxCell>
        <mxCell id="mT0ywA8BCh9S8RrEVg0q-215" value="item_cesta int NOT NULL" style="shape=partialRectangle;connectable=0;fillColor=none;top=0;left=0;bottom=0;right=0;align=left;spacingLeft=6;fontStyle=5;overflow=hidden;shadow=1;glass=1;labelBackgroundColor=#ffffff;fontSize=10;strokeColor=#000000;" vertex="1" parent="mT0ywA8BCh9S8RrEVg0q-213">
          <mxGeometry x="60" width="220" height="30" as="geometry">
            <mxRectangle width="220" height="30" as="alternateBounds" />
          </mxGeometry>
        </mxCell>
        <mxCell id="mT0ywA8BCh9S8RrEVg0q-216" value="" style="shape=tableRow;horizontal=0;startSize=0;swimlaneHead=0;swimlaneBody=0;fillColor=none;collapsible=0;dropTarget=0;points=[[0,0.5],[1,0.5]];portConstraint=eastwest;top=0;left=0;right=0;bottom=0;shadow=1;glass=1;labelBackgroundColor=#ffffff;fontSize=10;strokeColor=#000000;" vertex="1" parent="mT0ywA8BCh9S8RrEVg0q-209">
          <mxGeometry y="90" width="280" height="30" as="geometry" />
        </mxCell>
        <mxCell id="mT0ywA8BCh9S8RrEVg0q-217" value="" style="shape=partialRectangle;connectable=0;fillColor=none;top=0;left=0;bottom=0;right=0;editable=1;overflow=hidden;shadow=1;glass=1;labelBackgroundColor=#ffffff;fontSize=10;strokeColor=#000000;" vertex="1" parent="mT0ywA8BCh9S8RrEVg0q-216">
          <mxGeometry width="60" height="30" as="geometry">
            <mxRectangle width="60" height="30" as="alternateBounds" />
          </mxGeometry>
        </mxCell>
        <mxCell id="mT0ywA8BCh9S8RrEVg0q-218" value="quantidade int NOT NULL" style="shape=partialRectangle;connectable=0;fillColor=none;top=0;left=0;bottom=0;right=0;align=left;spacingLeft=6;overflow=hidden;shadow=1;glass=1;labelBackgroundColor=#ffffff;fontSize=12;strokeColor=#000000;" vertex="1" parent="mT0ywA8BCh9S8RrEVg0q-216">
          <mxGeometry x="60" width="220" height="30" as="geometry">
            <mxRectangle width="220" height="30" as="alternateBounds" />
          </mxGeometry>
        </mxCell>
        <mxCell id="mT0ywA8BCh9S8RrEVg0q-222" value="" style="edgeStyle=elbowEdgeStyle;fontSize=12;html=1;endArrow=ERzeroToMany;startArrow=ERmandOne;rounded=0;exitX=1.002;exitY=0.217;exitDx=0;exitDy=0;exitPerimeter=0;" edge="1" parent="1" source="EBOHfWfp8YWrXC1AQora-68" target="mT0ywA8BCh9S8RrEVg0q-187">
          <mxGeometry width="100" height="100" relative="1" as="geometry">
            <mxPoint x="349" y="478" as="sourcePoint" />
            <mxPoint x="449" y="378" as="targetPoint" />
            <Array as="points">
              <mxPoint x="419" y="498" />
            </Array>
          </mxGeometry>
        </mxCell>
        <mxCell id="mT0ywA8BCh9S8RrEVg0q-223" value="" style="edgeStyle=elbowEdgeStyle;fontSize=12;html=1;endArrow=ERmandOne;startArrow=ERmandOne;rounded=0;entryX=0;entryY=0.5;entryDx=0;entryDy=0;exitX=0;exitY=0.5;exitDx=0;exitDy=0;" edge="1" parent="1" source="mT0ywA8BCh9S8RrEVg0q-166" target="mT0ywA8BCh9S8RrEVg0q-190">
          <mxGeometry width="100" height="100" relative="1" as="geometry">
            <mxPoint x="349" y="568" as="sourcePoint" />
            <mxPoint x="449" y="468" as="targetPoint" />
            <Array as="points">
              <mxPoint x="419" y="618" />
            </Array>
          </mxGeometry>
        </mxCell>
        <mxCell id="mT0ywA8BCh9S8RrEVg0q-224" value="" style="edgeStyle=elbowEdgeStyle;fontSize=12;html=1;endArrow=ERoneToMany;startArrow=ERmandOne;rounded=0;exitX=1;exitY=0.5;exitDx=0;exitDy=0;" edge="1" parent="1" source="mT0ywA8BCh9S8RrEVg0q-184" target="mT0ywA8BCh9S8RrEVg0q-213">
          <mxGeometry width="100" height="100" relative="1" as="geometry">
            <mxPoint x="749" y="383" as="sourcePoint" />
            <mxPoint x="849" y="283" as="targetPoint" />
            <Array as="points">
              <mxPoint x="749" y="438" />
            </Array>
          </mxGeometry>
        </mxCell>
        <mxCell id="mT0ywA8BCh9S8RrEVg0q-225" value="" style="edgeStyle=orthogonalEdgeStyle;fontSize=12;html=1;endArrow=ERzeroToMany;startArrow=ERmandOne;rounded=0;entryX=1.005;entryY=0.842;entryDx=0;entryDy=0;entryPerimeter=0;exitX=0;exitY=0.5;exitDx=0;exitDy=0;" edge="1" parent="1" source="mT0ywA8BCh9S8RrEVg0q-155" target="mT0ywA8BCh9S8RrEVg0q-210">
          <mxGeometry width="100" height="100" relative="1" as="geometry">
            <mxPoint x="819" y="318" as="sourcePoint" />
            <mxPoint x="919" y="218" as="targetPoint" />
          </mxGeometry>
        </mxCell>
        <mxCell id="mT0ywA8BCh9S8RrEVg0q-226" value="" style="edgeStyle=elbowEdgeStyle;fontSize=12;html=1;endArrow=ERzeroToMany;startArrow=ERmandOne;rounded=0;exitX=1.007;exitY=0.772;exitDx=0;exitDy=0;exitPerimeter=0;" edge="1" parent="1" source="EBOHfWfp8YWrXC1AQora-68" target="mT0ywA8BCh9S8RrEVg0q-2">
          <mxGeometry width="100" height="100" relative="1" as="geometry">
            <mxPoint x="369" y="478" as="sourcePoint" />
            <mxPoint x="409" y="608" as="targetPoint" />
          </mxGeometry>
        </mxCell>
        <mxCell id="mT0ywA8BCh9S8RrEVg0q-227" value="&lt;p style=&quot;line-height: 0&quot;&gt;Projeto DRUGSTORE&lt;span style=&quot;color: rgb(51 , 51 , 51) ; text-align: justify&quot;&gt;&lt;font style=&quot;font-size: 24px&quot;&gt;®&lt;/font&gt;&lt;/span&gt;&lt;/p&gt;&lt;p&gt;&lt;span style=&quot;color: rgb(51 , 51 , 51) ; text-align: justify ; font-weight: normal&quot;&gt;&lt;font style=&quot;font-size: 24px&quot;&gt;&lt;i&gt;Modelo Relacional&lt;/i&gt;&lt;/font&gt;&lt;/span&gt;&lt;/p&gt;" style="text;strokeColor=none;fillColor=none;html=1;fontSize=24;fontStyle=1;verticalAlign=middle;align=center;shadow=0;glass=1;labelBackgroundColor=#ffffff;fillOpacity=100;" vertex="1" parent="1">
          <mxGeometry x="100" y="38" width="100" height="40" as="geometry" />
        </mxCell>
      </root>
    </mxGraphModel>
  </diagram>
</mxfile>
